<svg width="424" height="232" viewBox="0 0 424 232" fill="none" xmlns="http://www.w3.org/2000/svg">
<path d="M0.616477 6.14062V4.81818H8.49645V6.14062H5.3196V15H3.78835V6.14062H0.616477ZM10.619 15L8.37181 7.36364H9.90803L11.4045 12.9716H11.4791L12.9805 7.36364H14.5167L16.0082 12.9467H16.0827L17.5693 7.36364H19.1055L16.8633 15H15.347L13.7958 9.48651H13.6815L12.1303 15H10.619ZM23.2204 15.1541C22.5045 15.1541 21.8797 14.9901 21.3461 14.6619C20.8125 14.3338 20.3982 13.8748 20.1032 13.2848C19.8082 12.6948 19.6607 12.0054 19.6607 11.2166C19.6607 10.4245 19.8082 9.73177 20.1032 9.13849C20.3982 8.54522 20.8125 8.08452 21.3461 7.75639C21.8797 7.42827 22.5045 7.2642 23.2204 7.2642C23.9363 7.2642 24.561 7.42827 25.0947 7.75639C25.6283 8.08452 26.0426 8.54522 26.3376 9.13849C26.6325 9.73177 26.78 10.4245 26.78 11.2166C26.78 12.0054 26.6325 12.6948 26.3376 13.2848C26.0426 13.8748 25.6283 14.3338 25.0947 14.6619C24.561 14.9901 23.9363 15.1541 23.2204 15.1541ZM23.2253 13.9062C23.6893 13.9062 24.0738 13.7836 24.3787 13.5384C24.6837 13.2931 24.909 12.9666 25.0549 12.5589C25.204 12.1513 25.2786 11.7022 25.2786 11.2116C25.2786 10.7244 25.204 10.277 25.0549 9.86932C24.909 9.45833 24.6837 9.12855 24.3787 8.87997C24.0738 8.63139 23.6893 8.5071 23.2253 8.5071C22.758 8.5071 22.3702 8.63139 22.062 8.87997C21.7571 9.12855 21.53 9.45833 21.3809 9.86932C21.235 10.277 21.1621 10.7244 21.1621 11.2116C21.1621 11.7022 21.235 12.1513 21.3809 12.5589C21.53 12.9666 21.7571 13.2931 22.062 13.5384C22.3702 13.7836 22.758 13.9062 23.2253 13.9062ZM32.2111 10.0533V11.3409H27.6969V10.0533H32.2111ZM33.5084 4.81818H35.3727L38.6142 12.733H38.7335L41.975 4.81818H43.8393V15H42.3777V7.6321H42.2832L39.2804 14.9851H38.0673L35.0645 7.62713H34.97V15H33.5084V4.81818ZM48.8901 15.1541C48.1742 15.1541 47.5495 14.9901 47.0158 14.6619C46.4822 14.3338 46.0679 13.8748 45.7729 13.2848C45.478 12.6948 45.3305 12.0054 45.3305 11.2166C45.3305 10.4245 45.478 9.73177 45.7729 9.13849C46.0679 8.54522 46.4822 8.08452 47.0158 7.75639C47.5495 7.42827 48.1742 7.2642 48.8901 7.2642C49.606 7.2642 50.2308 7.42827 50.7644 7.75639C51.298 8.08452 51.7123 8.54522 52.0073 9.13849C52.3023 9.73177 52.4498 10.4245 52.4498 11.2166C52.4498 12.0054 52.3023 12.6948 52.0073 13.2848C51.7123 13.8748 51.298 14.3338 50.7644 14.6619C50.2308 14.9901 49.606 15.1541 48.8901 15.1541ZM48.8951 13.9062C49.3591 13.9062 49.7436 13.7836 50.0485 13.5384C50.3534 13.2931 50.5788 12.9666 50.7246 12.5589C50.8738 12.1513 50.9484 11.7022 50.9484 11.2116C50.9484 10.7244 50.8738 10.277 50.7246 9.86932C50.5788 9.45833 50.3534 9.12855 50.0485 8.87997C49.7436 8.63139 49.3591 8.5071 48.8951 8.5071C48.4278 8.5071 48.04 8.63139 47.7317 8.87997C47.4268 9.12855 47.1998 9.45833 47.0506 9.86932C46.9048 10.277 46.8319 10.7244 46.8319 11.2116C46.8319 11.7022 46.9048 12.1513 47.0506 12.5589C47.1998 12.9666 47.4268 13.2931 47.7317 13.5384C48.04 13.7836 48.4278 13.9062 48.8951 13.9062ZM55.3156 10.4659V15H53.8291V7.36364H55.2559V8.60653H55.3504C55.526 8.20218 55.8011 7.87737 56.1756 7.6321C56.5535 7.38684 57.0291 7.2642 57.6025 7.2642C58.1229 7.2642 58.5786 7.37358 58.9697 7.59233C59.3608 7.80777 59.664 8.12926 59.8795 8.55682C60.0949 8.98437 60.2026 9.51302 60.2026 10.1428V15H58.7161V10.3217C58.7161 9.76823 58.572 9.3357 58.2836 9.02415C57.9952 8.70928 57.5992 8.55185 57.0954 8.55185C56.7507 8.55185 56.4441 8.62642 56.1756 8.77557C55.9105 8.92472 55.7 9.14347 55.5443 9.43182C55.3918 9.71686 55.3156 10.0616 55.3156 10.4659ZM65.4809 7.36364V8.55682H61.3097V7.36364H65.4809ZM62.4283 5.53409H63.9148V12.7578C63.9148 13.0462 63.9579 13.2633 64.0441 13.4091C64.1303 13.5516 64.2413 13.6494 64.3772 13.7024C64.5164 13.7521 64.6672 13.777 64.8296 13.777C64.9489 13.777 65.0533 13.7687 65.1428 13.7521C65.2323 13.7356 65.3019 13.7223 65.3516 13.7124L65.6201 14.9403C65.5339 14.9735 65.4113 15.0066 65.2522 15.0398C65.0931 15.0762 64.8942 15.0961 64.6556 15.0994C64.2645 15.1061 63.8999 15.0365 63.5618 14.8906C63.2238 14.7448 62.9503 14.5194 62.7415 14.2145C62.5327 13.9096 62.4283 13.5268 62.4283 13.0661V5.53409ZM68.4958 10.4659V15H67.0093V4.81818H68.4759V8.60653H68.5704C68.7493 8.19555 69.0228 7.86908 69.3907 7.62713C69.7586 7.38518 70.2392 7.2642 70.8324 7.2642C71.3561 7.2642 71.8135 7.37192 72.2046 7.58736C72.599 7.80279 72.9039 8.12429 73.1194 8.55185C73.3381 8.97609 73.4475 9.50639 73.4475 10.1428V15H71.961V10.3217C71.961 9.7616 71.8168 9.32741 71.5285 9.01918C71.2401 8.70762 70.8391 8.55185 70.3253 8.55185C69.974 8.55185 69.6591 8.62642 69.3807 8.77557C69.1056 8.92472 68.8886 9.14347 68.7295 9.43182C68.5737 9.71686 68.4958 10.0616 68.4958 10.4659ZM78.1934 6.14062V4.81818H86.0734V6.14062H82.8966V15H81.3653V6.14062H78.1934ZM86.6224 15V7.36364H88.0592V8.5767H88.1387C88.278 8.16572 88.5232 7.84257 88.8745 7.60724C89.2292 7.36861 89.6302 7.24929 90.0777 7.24929C90.1705 7.24929 90.2798 7.2526 90.4058 7.25923C90.5351 7.26586 90.6361 7.27415 90.7091 7.28409V8.70597C90.6494 8.68939 90.5433 8.67116 90.3909 8.65128C90.2384 8.62808 90.086 8.61648 89.9335 8.61648C89.5822 8.61648 89.269 8.69105 88.9939 8.8402C88.7221 8.98603 88.5066 9.18987 88.3476 9.4517C88.1885 9.71023 88.1089 10.0052 88.1089 10.3366V15H86.6224ZM94.7332 15.1541C93.9808 15.1541 93.3329 14.9934 92.7893 14.6719C92.2491 14.3471 91.8315 13.8913 91.5365 13.3047C91.2448 12.7147 91.099 12.0237 91.099 11.2315C91.099 10.4493 91.2448 9.75994 91.5365 9.16335C91.8315 8.56676 92.2424 8.10109 92.7694 7.76633C93.2997 7.43158 93.9195 7.2642 94.6288 7.2642C95.0597 7.2642 95.4773 7.33546 95.8817 7.47798C96.286 7.6205 96.6489 7.84422 96.9704 8.14915C97.2919 8.45407 97.5455 8.85014 97.7311 9.33736C97.9167 9.82126 98.0095 10.4096 98.0095 11.1023V11.6293H91.9392V10.5156H96.5528C96.5528 10.1245 96.4733 9.77817 96.3142 9.47656C96.1551 9.17164 95.9314 8.93134 95.643 8.75568C95.358 8.58002 95.0232 8.49219 94.6388 8.49219C94.2211 8.49219 93.8566 8.59493 93.545 8.80043C93.2368 9.0026 92.9981 9.26776 92.8291 9.59588C92.6634 9.92069 92.5805 10.2737 92.5805 10.6548V11.5249C92.5805 12.0353 92.67 12.4695 92.849 12.8274C93.0313 13.1854 93.2848 13.4588 93.6096 13.6477C93.9344 13.8333 94.3139 13.9261 94.7481 13.9261C95.0299 13.9261 95.2867 13.8864 95.5187 13.8068C95.7507 13.724 95.9513 13.6013 96.1203 13.4389C96.2893 13.2765 96.4186 13.076 96.5081 12.8374L97.915 13.0909C97.8023 13.5052 97.6002 13.8681 97.3085 14.1797C97.0201 14.4879 96.6572 14.7282 96.2197 14.9006C95.7855 15.0696 95.29 15.1541 94.7332 15.1541ZM100.865 10.4659V15H99.3788V7.36364H100.806V8.60653H100.9C101.076 8.20218 101.351 7.87737 101.725 7.6321C102.103 7.38684 102.579 7.2642 103.152 7.2642C103.673 7.2642 104.128 7.37358 104.519 7.59233C104.911 7.80777 105.214 8.12926 105.429 8.55682C105.645 8.98437 105.752 9.51302 105.752 10.1428V15H104.266V10.3217C104.266 9.76823 104.122 9.3357 103.833 9.02415C103.545 8.70928 103.149 8.55185 102.645 8.55185C102.3 8.55185 101.994 8.62642 101.725 8.77557C101.46 8.92472 101.25 9.14347 101.094 9.43182C100.942 9.71686 100.865 10.0616 100.865 10.4659ZM110.325 15.1491C109.708 15.1491 109.158 14.9917 108.674 14.6768C108.194 14.3587 107.816 13.9062 107.541 13.3196C107.269 12.7296 107.133 12.022 107.133 11.1967C107.133 10.3714 107.27 9.66548 107.546 9.07884C107.824 8.49219 108.205 8.04309 108.689 7.73153C109.173 7.41998 109.721 7.2642 110.335 7.2642C110.809 7.2642 111.19 7.34375 111.478 7.50284C111.77 7.65862 111.995 7.84091 112.154 8.04972C112.317 8.25852 112.443 8.44247 112.532 8.60156H112.622V4.81818H114.108V15H112.656V13.8118H112.532C112.443 13.9742 112.313 14.1598 112.144 14.3686C111.979 14.5774 111.75 14.7597 111.458 14.9155C111.167 15.0713 110.789 15.1491 110.325 15.1491ZM110.653 13.8814C111.08 13.8814 111.442 13.7687 111.737 13.5433C112.035 13.3146 112.26 12.9981 112.413 12.5938C112.569 12.1894 112.646 11.7187 112.646 11.1818C112.646 10.6515 112.57 10.1875 112.418 9.78977C112.265 9.39205 112.042 9.08215 111.747 8.86009C111.452 8.63802 111.087 8.52699 110.653 8.52699C110.205 8.52699 109.832 8.64299 109.534 8.875C109.236 9.10701 109.011 9.42353 108.858 9.82457C108.709 10.2256 108.634 10.678 108.634 11.1818C108.634 11.6922 108.711 12.1513 108.863 12.5589C109.015 12.9666 109.241 13.2898 109.539 13.5284C109.841 13.7637 110.212 13.8814 110.653 13.8814Z" fill="#6D6E78"/>
<path d="M320.966 207.198L319.742 207.294C319.633 206.811 319.478 206.46 319.277 206.241C318.945 205.89 318.535 205.715 318.047 205.715C317.655 205.715 317.311 205.824 317.015 206.043C316.627 206.326 316.322 206.738 316.099 207.28C315.875 207.823 315.759 208.595 315.75 209.598C316.046 209.146 316.409 208.812 316.837 208.593C317.265 208.374 317.714 208.265 318.184 208.265C319.004 208.265 319.701 208.568 320.275 209.174C320.854 209.775 321.144 210.555 321.144 211.512C321.144 212.141 321.007 212.726 320.733 213.269C320.465 213.806 320.093 214.219 319.619 214.506C319.145 214.793 318.607 214.937 318.006 214.937C316.98 214.937 316.144 214.561 315.497 213.809C314.85 213.052 314.526 211.808 314.526 210.076C314.526 208.139 314.884 206.731 315.6 205.852C316.224 205.086 317.065 204.703 318.122 204.703C318.91 204.703 319.555 204.924 320.057 205.366C320.562 205.808 320.866 206.419 320.966 207.198ZM315.941 211.519C315.941 211.942 316.03 212.348 316.208 212.735C316.39 213.123 316.643 213.419 316.967 213.624C317.29 213.825 317.63 213.925 317.985 213.925C318.505 213.925 318.951 213.715 319.325 213.296C319.699 212.877 319.886 212.307 319.886 211.587C319.886 210.894 319.701 210.35 319.332 209.953C318.963 209.552 318.498 209.352 317.938 209.352C317.382 209.352 316.91 209.552 316.522 209.953C316.135 210.35 315.941 210.871 315.941 211.519ZM326.154 211.136C326.154 209.791 326.528 208.796 327.275 208.148C327.9 207.611 328.661 207.342 329.559 207.342C330.557 207.342 331.372 207.67 332.006 208.326C332.639 208.978 332.956 209.88 332.956 211.033C332.956 211.967 332.815 212.703 332.532 213.241C332.254 213.774 331.846 214.189 331.309 214.485C330.775 214.782 330.192 214.93 329.559 214.93C328.542 214.93 327.72 214.604 327.091 213.952C326.466 213.3 326.154 212.362 326.154 211.136ZM327.419 211.136C327.419 212.065 327.622 212.763 328.027 213.228C328.433 213.688 328.943 213.918 329.559 213.918C330.169 213.918 330.677 213.686 331.083 213.221C331.489 212.756 331.691 212.047 331.691 211.095C331.691 210.197 331.486 209.518 331.076 209.058C330.671 208.593 330.165 208.36 329.559 208.36C328.943 208.36 328.433 208.59 328.027 209.051C327.622 209.511 327.419 210.206 327.419 211.136ZM336.422 214.766L333.66 207.506H334.959L336.518 211.854C336.686 212.323 336.841 212.811 336.982 213.316C337.092 212.934 337.244 212.473 337.44 211.936L339.054 207.506H340.318L337.57 214.766H336.422ZM346.375 212.428L347.646 212.585C347.446 213.328 347.075 213.904 346.532 214.314C345.99 214.725 345.297 214.93 344.454 214.93C343.392 214.93 342.549 214.604 341.925 213.952C341.305 213.296 340.995 212.378 340.995 211.197C340.995 209.976 341.31 209.028 341.938 208.354C342.567 207.679 343.383 207.342 344.386 207.342C345.356 207.342 346.149 207.672 346.765 208.333C347.38 208.994 347.688 209.924 347.688 211.122C347.688 211.195 347.685 211.304 347.681 211.45H342.267C342.312 212.248 342.538 212.858 342.943 213.282C343.349 213.706 343.855 213.918 344.461 213.918C344.912 213.918 345.297 213.799 345.616 213.562C345.935 213.326 346.188 212.947 346.375 212.428ZM342.335 210.438H346.389C346.334 209.828 346.179 209.37 345.924 209.064C345.532 208.59 345.024 208.354 344.399 208.354C343.834 208.354 343.358 208.543 342.971 208.921C342.588 209.299 342.376 209.805 342.335 210.438ZM349.185 214.766V207.506H350.292V208.606C350.575 208.091 350.834 207.752 351.071 207.588C351.313 207.424 351.577 207.342 351.864 207.342C352.279 207.342 352.701 207.474 353.129 207.738L352.705 208.88C352.404 208.702 352.104 208.613 351.803 208.613C351.534 208.613 351.292 208.695 351.078 208.859C350.864 209.019 350.711 209.242 350.62 209.529C350.483 209.967 350.415 210.445 350.415 210.965V214.766H349.185ZM358.57 214.766V213.85C358.11 214.57 357.433 214.93 356.54 214.93C355.961 214.93 355.428 214.77 354.94 214.451C354.457 214.132 354.081 213.688 353.812 213.118C353.548 212.544 353.416 211.885 353.416 211.143C353.416 210.418 353.537 209.762 353.778 209.174C354.02 208.581 354.382 208.128 354.865 207.813C355.348 207.499 355.888 207.342 356.485 207.342C356.923 207.342 357.312 207.435 357.654 207.622C357.996 207.804 358.274 208.044 358.488 208.34V204.744H359.712V214.766H358.57ZM354.681 211.143C354.681 212.072 354.877 212.767 355.269 213.228C355.66 213.688 356.123 213.918 356.656 213.918C357.194 213.918 357.65 213.699 358.023 213.262C358.402 212.82 358.591 212.147 358.591 211.245C358.591 210.252 358.399 209.522 358.017 209.058C357.634 208.593 357.162 208.36 356.602 208.36C356.055 208.36 355.597 208.584 355.228 209.03C354.863 209.477 354.681 210.181 354.681 211.143ZM366.411 214.766V213.699C365.846 214.52 365.078 214.93 364.107 214.93C363.679 214.93 363.278 214.848 362.904 214.684C362.535 214.52 362.259 214.314 362.077 214.068C361.899 213.818 361.774 213.512 361.701 213.152C361.651 212.911 361.626 212.528 361.626 212.004V207.506H362.856V211.532C362.856 212.175 362.882 212.608 362.932 212.831C363.009 213.155 363.173 213.41 363.424 213.597C363.674 213.779 363.984 213.87 364.354 213.87C364.723 213.87 365.069 213.777 365.393 213.59C365.716 213.398 365.944 213.141 366.076 212.817C366.213 212.489 366.281 212.015 366.281 211.396V207.506H367.512V214.766H366.411ZM374.416 212.428L375.688 212.585C375.487 213.328 375.116 213.904 374.573 214.314C374.031 214.725 373.338 214.93 372.495 214.93C371.433 214.93 370.59 214.604 369.966 213.952C369.346 213.296 369.036 212.378 369.036 211.197C369.036 209.976 369.351 209.028 369.979 208.354C370.608 207.679 371.424 207.342 372.427 207.342C373.397 207.342 374.19 207.672 374.806 208.333C375.421 208.994 375.729 209.924 375.729 211.122C375.729 211.195 375.726 211.304 375.722 211.45H370.308C370.353 212.248 370.579 212.858 370.984 213.282C371.39 213.706 371.896 213.918 372.502 213.918C372.953 213.918 373.338 213.799 373.657 213.562C373.976 213.326 374.229 212.947 374.416 212.428ZM370.376 210.438H374.43C374.375 209.828 374.22 209.37 373.965 209.064C373.573 208.59 373.065 208.354 372.44 208.354C371.875 208.354 371.399 208.543 371.012 208.921C370.629 209.299 370.417 209.805 370.376 210.438Z" fill="#333333"/>
<path d="M391.992 202.22V216.766H389.79V204.422H389.705L386.225 206.695V204.592L389.854 202.22H391.992ZM400.99 217.007C399.868 217.002 398.909 216.706 398.114 216.119C397.319 215.532 396.71 214.678 396.289 213.555C395.867 212.433 395.657 211.081 395.657 209.5C395.657 207.923 395.867 206.576 396.289 205.459C396.715 204.341 397.326 203.489 398.121 202.902C398.921 202.315 399.878 202.021 400.99 202.021C402.103 202.021 403.057 202.317 403.853 202.909C404.648 203.496 405.257 204.348 405.678 205.466C406.104 206.579 406.317 207.923 406.317 209.5C406.317 211.086 406.106 212.44 405.685 213.562C405.264 214.68 404.655 215.535 403.86 216.126C403.064 216.714 402.108 217.007 400.99 217.007ZM400.99 215.111C401.975 215.111 402.745 214.63 403.299 213.669C403.857 212.708 404.137 211.318 404.137 209.5C404.137 208.293 404.009 207.272 403.753 206.439C403.502 205.601 403.14 204.966 402.667 204.536C402.198 204.1 401.639 203.882 400.99 203.882C400.01 203.882 399.241 204.365 398.682 205.331C398.123 206.297 397.842 207.687 397.837 209.5C397.837 210.712 397.962 211.737 398.213 212.575C398.469 213.409 398.831 214.041 399.3 214.472C399.769 214.898 400.332 215.111 400.99 215.111ZM416.429 214.038V213.271C416.429 212.722 416.543 212.22 416.77 211.766C417.002 211.306 417.338 210.939 417.778 210.665C418.223 210.385 418.761 210.246 419.391 210.246C420.035 210.246 420.574 210.383 421.01 210.658C421.446 210.932 421.775 211.299 421.997 211.759C422.224 212.218 422.338 212.722 422.338 213.271V214.038C422.338 214.588 422.224 215.092 421.997 215.551C421.77 216.006 421.436 216.373 420.996 216.652C420.56 216.927 420.025 217.064 419.391 217.064C418.751 217.064 418.212 216.927 417.771 216.652C417.331 216.373 416.997 216.006 416.77 215.551C416.543 215.092 416.429 214.588 416.429 214.038ZM418.084 213.271V214.038C418.084 214.446 418.181 214.815 418.375 215.146C418.569 215.478 418.908 215.643 419.391 215.643C419.869 215.643 420.203 215.478 420.392 215.146C420.581 214.815 420.676 214.446 420.676 214.038V213.271C420.676 212.864 420.584 212.495 420.399 212.163C420.219 211.832 419.883 211.666 419.391 211.666C418.917 211.666 418.581 211.832 418.382 212.163C418.183 212.495 418.084 212.864 418.084 213.271ZM409.114 205.714V204.947C409.114 204.398 409.227 203.894 409.455 203.435C409.687 202.975 410.023 202.608 410.463 202.334C410.908 202.059 411.446 201.922 412.075 201.922C412.719 201.922 413.259 202.059 413.695 202.334C414.13 202.608 414.459 202.975 414.682 203.435C414.904 203.894 415.016 204.398 415.016 204.947V205.714C415.016 206.264 414.902 206.768 414.675 207.227C414.452 207.682 414.121 208.049 413.68 208.328C413.245 208.603 412.71 208.74 412.075 208.74C411.431 208.74 410.889 208.603 410.449 208.328C410.013 208.049 409.682 207.682 409.455 207.227C409.227 206.768 409.114 206.264 409.114 205.714ZM410.776 204.947V205.714C410.776 206.122 410.87 206.491 411.06 206.822C411.254 207.154 411.592 207.32 412.075 207.32C412.549 207.32 412.88 207.154 413.07 206.822C413.264 206.491 413.361 206.122 413.361 205.714V204.947C413.361 204.54 413.268 204.171 413.084 203.839C412.899 203.508 412.563 203.342 412.075 203.342C411.602 203.342 411.266 203.508 411.067 203.839C410.873 204.171 410.776 204.54 410.776 204.947ZM409.788 216.766L419.788 202.22H421.486L411.486 216.766H409.788Z" fill="#E11D48"/>
<path d="M56.2614 205.766H54.3977L58.5852 194.129H60.6136L64.8011 205.766H62.9375L59.6477 196.243H59.5568L56.2614 205.766ZM56.5739 201.209H62.6193V202.686H56.5739V201.209ZM69.5522 197.038V198.402H64.7851V197.038H69.5522ZM66.0635 194.947H67.7624V203.203C67.7624 203.533 67.8116 203.781 67.9101 203.947C68.0086 204.11 68.1355 204.222 68.2908 204.283C68.4499 204.339 68.6222 204.368 68.8078 204.368C68.9442 204.368 69.0635 204.358 69.1658 204.339C69.2681 204.321 69.3476 204.305 69.4044 204.294L69.7113 205.697C69.6128 205.735 69.4726 205.773 69.2908 205.811C69.109 205.853 68.8817 205.875 68.609 205.879C68.162 205.887 67.7453 205.807 67.359 205.641C66.9726 205.474 66.6601 205.216 66.4215 204.868C66.1828 204.519 66.0635 204.082 66.0635 203.555V194.947ZM75.1622 205.766V194.129H79.3099C80.2114 194.129 80.9595 194.285 81.5542 194.595C82.1527 194.906 82.5997 195.336 82.8951 195.885C83.1906 196.43 83.3383 197.061 83.3383 197.777C83.3383 198.489 83.1887 199.116 82.8894 199.658C82.594 200.196 82.147 200.614 81.5485 200.913C80.9538 201.213 80.2057 201.362 79.3042 201.362H76.1622V199.851H79.1451C79.7133 199.851 80.1754 199.769 80.5315 199.607C80.8913 199.444 81.1546 199.207 81.3213 198.896C81.4879 198.586 81.5713 198.213 81.5713 197.777C81.5713 197.338 81.486 196.957 81.3156 196.635C81.1489 196.313 80.8856 196.067 80.5258 195.896C80.1697 195.722 79.7019 195.635 79.1224 195.635H76.9178V205.766H75.1622ZM80.9065 200.516L83.7815 205.766H81.7815L78.9633 200.516H80.9065ZM85.0183 205.766V197.038H86.7172V205.766H85.0183ZM85.8762 195.692C85.5808 195.692 85.327 195.593 85.1149 195.396C84.9066 195.196 84.8024 194.957 84.8024 194.68C84.8024 194.4 84.9066 194.161 85.1149 193.964C85.327 193.764 85.5808 193.663 85.8762 193.663C86.1717 193.663 86.4236 193.764 86.6319 193.964C86.8441 194.161 86.9501 194.4 86.9501 194.68C86.9501 194.957 86.8441 195.196 86.6319 195.396C86.4236 195.593 86.1717 195.692 85.8762 195.692ZM95.2224 199.169L93.6827 199.442C93.6183 199.245 93.516 199.057 93.3759 198.879C93.2395 198.701 93.0539 198.555 92.819 198.442C92.5842 198.328 92.2906 198.271 91.9384 198.271C91.4573 198.271 91.0558 198.379 90.7338 198.595C90.4118 198.807 90.2509 199.082 90.2509 199.419C90.2509 199.711 90.3588 199.946 90.5747 200.124C90.7906 200.302 91.1391 200.447 91.6202 200.561L93.0065 200.879C93.8096 201.065 94.4081 201.351 94.802 201.737C95.1959 202.124 95.3929 202.625 95.3929 203.243C95.3929 203.766 95.2414 204.232 94.9384 204.641C94.6391 205.046 94.2206 205.364 93.6827 205.595C93.1486 205.826 92.5293 205.942 91.8247 205.942C90.8474 205.942 90.0501 205.733 89.4327 205.317C88.8152 204.896 88.4365 204.3 88.2963 203.527L89.9384 203.277C90.0406 203.705 90.2509 204.029 90.569 204.249C90.8872 204.464 91.302 204.572 91.8134 204.572C92.3702 204.572 92.8152 204.457 93.1486 204.226C93.4819 203.991 93.6486 203.705 93.6486 203.368C93.6486 203.095 93.5463 202.866 93.3418 202.68C93.141 202.495 92.8323 202.355 92.4156 202.26L90.9384 201.936C90.124 201.75 89.5217 201.455 89.1315 201.05C88.7452 200.644 88.552 200.131 88.552 199.51C88.552 198.995 88.6959 198.544 88.9838 198.158C89.2717 197.771 89.6694 197.47 90.177 197.254C90.6846 197.035 91.266 196.925 91.9213 196.925C92.8645 196.925 93.6069 197.129 94.1486 197.538C94.6902 197.944 95.0482 198.487 95.2224 199.169ZM98.5033 202.805L98.4919 200.732H98.7874L102.265 197.038H104.299L100.333 201.243H100.066L98.5033 202.805ZM96.9408 205.766V194.129H98.6397V205.766H96.9408ZM102.452 205.766L99.3272 201.618L100.498 200.43L104.537 205.766H102.452Z" fill="#001833"/>
<path d="M57.8778 225.911C57.2045 225.908 56.6293 225.73 56.152 225.378C55.6747 225.026 55.3097 224.513 55.0568 223.839C54.804 223.166 54.6776 222.355 54.6776 221.406C54.6776 220.46 54.804 219.652 55.0568 218.982C55.3125 218.311 55.679 217.8 56.1562 217.447C56.6364 217.095 57.2102 216.919 57.8778 216.919C58.5455 216.919 59.1179 217.097 59.5952 217.452C60.0724 217.804 60.4375 218.315 60.6903 218.986C60.946 219.653 61.0739 220.46 61.0739 221.406C61.0739 222.358 60.9474 223.17 60.6946 223.844C60.4418 224.514 60.0767 225.027 59.5994 225.382C59.1222 225.734 58.5483 225.911 57.8778 225.911ZM57.8778 224.773C58.4688 224.773 58.9304 224.484 59.2628 223.908C59.598 223.331 59.7656 222.497 59.7656 221.406C59.7656 220.682 59.6889 220.07 59.5355 219.57C59.3849 219.067 59.1676 218.686 58.8835 218.428C58.6023 218.166 58.267 218.036 57.8778 218.036C57.2898 218.036 56.8281 218.325 56.4929 218.905C56.1577 219.484 55.9886 220.318 55.9858 221.406C55.9858 222.134 56.0611 222.749 56.2116 223.251C56.3651 223.751 56.5824 224.131 56.8636 224.389C57.1449 224.645 57.483 224.773 57.8778 224.773ZM62.4052 225.766L66.2149 218.232V218.168H61.8087V217.038H67.5785V218.206L63.7817 225.766H62.4052ZM72.1613 216.629L69.3488 227.078H68.2111L71.0236 216.629H72.1613ZM76.2978 217.038V225.766H74.9767V218.359H74.9256L72.8375 219.723V218.462L75.0151 217.038H76.2978ZM81.4569 225.911C80.7836 225.908 80.2083 225.73 79.7311 225.378C79.2538 225.026 78.8887 224.513 78.6359 223.839C78.383 223.166 78.2566 222.355 78.2566 221.406C78.2566 220.46 78.383 219.652 78.6359 218.982C78.8916 218.311 79.258 217.8 79.7353 217.447C80.2154 217.095 80.7893 216.919 81.4569 216.919C82.1245 216.919 82.697 217.097 83.1742 217.452C83.6515 217.804 84.0166 218.315 84.2694 218.986C84.5251 219.653 84.6529 220.46 84.6529 221.406C84.6529 222.358 84.5265 223.17 84.2737 223.844C84.0208 224.514 83.6558 225.027 83.1785 225.382C82.7012 225.734 82.1274 225.911 81.4569 225.911ZM81.4569 224.773C82.0478 224.773 82.5095 224.484 82.8418 223.908C83.1771 223.331 83.3447 222.497 83.3447 221.406C83.3447 220.682 83.268 220.07 83.1146 219.57C82.964 219.067 82.7467 218.686 82.4626 218.428C82.1813 218.166 81.8461 218.036 81.4569 218.036C80.8688 218.036 80.4072 218.325 80.072 218.905C79.7367 219.484 79.5677 220.318 79.5649 221.406C79.5649 222.134 79.6401 222.749 79.7907 223.251C79.9441 223.751 80.1614 224.131 80.4427 224.389C80.7239 224.645 81.062 224.773 81.4569 224.773ZM88.5493 218.172V217.038H95.3036V218.172H92.5806V225.766H91.2681V218.172H88.5493ZM97.4681 225.911C97.0533 225.911 96.6783 225.834 96.3431 225.68C96.0079 225.524 95.7422 225.298 95.5462 225.003C95.353 224.707 95.2564 224.345 95.2564 223.916C95.2564 223.547 95.3275 223.243 95.4695 223.004C95.6115 222.766 95.8033 222.577 96.0448 222.438C96.2863 222.298 96.5562 222.193 96.8544 222.122C97.1527 222.051 97.4567 221.997 97.7664 221.96C98.1584 221.915 98.4766 221.878 98.7209 221.849C98.9652 221.818 99.1428 221.768 99.2536 221.7C99.3644 221.632 99.4198 221.521 99.4198 221.368V221.338C99.4198 220.966 99.3147 220.678 99.1044 220.473C98.8971 220.268 98.5874 220.166 98.1755 220.166C97.7465 220.166 97.4084 220.261 97.1613 220.452C96.9169 220.639 96.7479 220.848 96.6542 221.078L95.4567 220.805C95.5988 220.408 95.8062 220.087 96.0789 219.842C96.3544 219.595 96.6712 219.416 97.0292 219.305C97.3871 219.192 97.7635 219.135 98.1584 219.135C98.4198 219.135 98.6968 219.166 98.9894 219.229C99.2848 219.288 99.5604 219.399 99.8161 219.561C100.075 219.723 100.286 219.955 100.451 220.256C100.616 220.554 100.698 220.942 100.698 221.419V225.766H99.4539V224.871H99.4027C99.3204 225.036 99.1968 225.197 99.032 225.357C98.8672 225.516 98.6556 225.648 98.3971 225.753C98.1385 225.858 97.8289 225.911 97.4681 225.911ZM97.7451 224.888C98.0973 224.888 98.3985 224.818 98.6485 224.679C98.9013 224.54 99.0931 224.358 99.2238 224.134C99.3573 223.906 99.424 223.663 99.424 223.405V222.561C99.3786 222.607 99.2905 222.649 99.1598 222.689C99.032 222.726 98.8857 222.759 98.7209 222.787C98.5562 222.812 98.3956 222.837 98.2394 222.859C98.0831 222.879 97.9525 222.896 97.8473 222.911C97.6002 222.942 97.3743 222.994 97.1698 223.068C96.9681 223.142 96.8062 223.249 96.684 223.388C96.5647 223.524 96.505 223.706 96.505 223.933C96.505 224.249 96.6215 224.487 96.8544 224.649C97.0874 224.808 97.3843 224.888 97.7451 224.888ZM107.06 220.818L105.905 221.023C105.857 220.875 105.78 220.734 105.675 220.601C105.573 220.467 105.434 220.358 105.258 220.273C105.081 220.187 104.861 220.145 104.597 220.145C104.236 220.145 103.935 220.226 103.694 220.388C103.452 220.547 103.331 220.753 103.331 221.006C103.331 221.224 103.412 221.401 103.574 221.534C103.736 221.668 103.998 221.777 104.358 221.862L105.398 222.101C106 222.24 106.449 222.455 106.745 222.744C107.04 223.034 107.188 223.411 107.188 223.874C107.188 224.266 107.074 224.615 106.847 224.922C106.623 225.226 106.309 225.464 105.905 225.638C105.505 225.811 105.04 225.898 104.512 225.898C103.779 225.898 103.181 225.741 102.718 225.429C102.255 225.114 101.971 224.666 101.866 224.087L103.097 223.899C103.174 224.22 103.331 224.463 103.57 224.628C103.809 224.79 104.12 224.871 104.503 224.871C104.921 224.871 105.255 224.784 105.505 224.611C105.755 224.435 105.88 224.22 105.88 223.967C105.88 223.763 105.803 223.591 105.65 223.452C105.499 223.312 105.268 223.207 104.955 223.136L103.847 222.893C103.236 222.754 102.785 222.533 102.492 222.229C102.202 221.925 102.057 221.54 102.057 221.074C102.057 220.687 102.165 220.349 102.381 220.06C102.597 219.77 102.895 219.544 103.276 219.382C103.657 219.217 104.093 219.135 104.584 219.135C105.292 219.135 105.848 219.288 106.255 219.595C106.661 219.899 106.929 220.307 107.06 220.818ZM109.521 223.545L109.512 221.99H109.734L112.342 219.22H113.867L110.893 222.374H110.693L109.521 223.545ZM108.349 225.766V217.038H109.623V225.766H108.349ZM112.482 225.766L110.139 222.655L111.016 221.764L114.046 225.766H112.482Z" fill="#6D6E78"/>
<circle cx="21" cy="209.766" r="21" fill="#F4F7FE"/>
<path d="M31.2 215.399L23.0016 201.161C22.7967 200.812 22.5042 200.523 22.1532 200.322C21.8021 200.121 21.4046 200.016 21 200.016C20.5955 200.016 20.198 200.121 19.8469 200.322C19.4958 200.523 19.2033 200.812 18.9985 201.161L10.8 215.399C10.6029 215.737 10.499 216.12 10.499 216.511C10.499 216.902 10.6029 217.285 10.8 217.623C11.0023 217.974 11.2943 218.265 11.646 218.465C11.9977 218.666 12.3966 218.77 12.8016 218.766H29.1985C29.6032 218.77 30.0016 218.666 30.353 218.465C30.7044 218.264 30.9961 217.974 31.1982 217.623C31.3956 217.286 31.4998 216.902 31.5001 216.511C31.5004 216.12 31.3969 215.737 31.2 215.399ZM20.25 207.516C20.25 207.317 20.329 207.126 20.4697 206.985C20.6104 206.845 20.8011 206.766 21 206.766C21.1989 206.766 21.3897 206.845 21.5304 206.985C21.671 207.126 21.75 207.317 21.75 207.516V211.266C21.75 211.465 21.671 211.655 21.5304 211.796C21.3897 211.937 21.1989 212.016 21 212.016C20.8011 212.016 20.6104 211.937 20.4697 211.796C20.329 211.655 20.25 211.465 20.25 211.266V207.516ZM21 215.766C20.7775 215.766 20.56 215.7 20.375 215.576C20.19 215.452 20.0458 215.277 19.9607 215.071C19.8755 214.866 19.8532 214.639 19.8966 214.421C19.9401 214.203 20.0472 214.003 20.2045 213.845C20.3619 213.688 20.5623 213.581 20.7806 213.537C20.9988 213.494 21.225 213.516 21.4305 213.601C21.6361 213.686 21.8118 213.831 21.9354 214.016C22.059 214.201 22.125 214.418 22.125 214.641C22.125 214.939 22.0065 215.225 21.7955 215.436C21.5845 215.647 21.2984 215.766 21 215.766Z" fill="#E11D48"/>
<path d="M385.147 73L391.496 60.4432V60.3366H384.153V58.4545H393.769V60.4006L387.441 73H385.147ZM400.99 73.2415C399.868 73.2367 398.909 72.9408 398.114 72.3537C397.319 71.7666 396.71 70.9119 396.289 69.7898C395.867 68.6676 395.657 67.3158 395.657 65.7344C395.657 64.1577 395.867 62.8106 396.289 61.6932C396.715 60.5758 397.326 59.7235 398.121 59.1364C398.921 58.5492 399.878 58.2557 400.99 58.2557C402.103 58.2557 403.057 58.5516 403.853 59.1435C404.648 59.7306 405.257 60.5829 405.678 61.7003C406.104 62.813 406.317 64.1577 406.317 65.7344C406.317 67.3205 406.106 68.6747 405.685 69.7969C405.264 70.9143 404.655 71.7689 403.86 72.3608C403.064 72.9479 402.108 73.2415 400.99 73.2415ZM400.99 71.3452C401.975 71.3452 402.745 70.8646 403.299 69.9034C403.857 68.9422 404.137 67.5526 404.137 65.7344C404.137 64.527 404.009 63.5066 403.753 62.6733C403.502 61.8352 403.14 61.2008 402.667 60.7699C402.198 60.3343 401.639 60.1165 400.99 60.1165C400.01 60.1165 399.241 60.5994 398.682 61.5653C398.123 62.5312 397.842 63.9209 397.837 65.7344C397.837 66.9465 397.962 67.9716 398.213 68.8097C398.469 69.643 398.831 70.2751 399.3 70.706C399.769 71.1321 400.332 71.3452 400.99 71.3452ZM416.429 70.2727V69.5057C416.429 68.9564 416.543 68.4545 416.77 68C417.002 67.5407 417.338 67.1738 417.778 66.8991C418.223 66.6198 418.761 66.4801 419.391 66.4801C420.035 66.4801 420.574 66.6174 421.01 66.892C421.446 67.1667 421.775 67.5336 421.997 67.9929C422.224 68.4522 422.338 68.9564 422.338 69.5057V70.2727C422.338 70.822 422.224 71.3262 421.997 71.7855C421.77 72.2401 421.436 72.607 420.996 72.8864C420.56 73.161 420.025 73.2983 419.391 73.2983C418.751 73.2983 418.212 73.161 417.771 72.8864C417.331 72.607 416.997 72.2401 416.77 71.7855C416.543 71.3262 416.429 70.822 416.429 70.2727ZM418.084 69.5057V70.2727C418.084 70.6799 418.181 71.0492 418.375 71.3807C418.569 71.7121 418.908 71.8778 419.391 71.8778C419.869 71.8778 420.203 71.7121 420.392 71.3807C420.581 71.0492 420.676 70.6799 420.676 70.2727V69.5057C420.676 69.0985 420.584 68.7292 420.399 68.3977C420.219 68.0663 419.883 67.9006 419.391 67.9006C418.917 67.9006 418.581 68.0663 418.382 68.3977C418.183 68.7292 418.084 69.0985 418.084 69.5057ZM409.114 61.9489V61.1818C409.114 60.6326 409.227 60.1283 409.455 59.669C409.687 59.2098 410.023 58.8428 410.463 58.5682C410.908 58.2936 411.446 58.1562 412.075 58.1562C412.719 58.1562 413.259 58.2936 413.695 58.5682C414.13 58.8428 414.459 59.2098 414.682 59.669C414.904 60.1283 415.016 60.6326 415.016 61.1818V61.9489C415.016 62.4981 414.902 63.0024 414.675 63.4616C414.452 63.9162 414.121 64.2831 413.68 64.5625C413.245 64.8371 412.71 64.9744 412.075 64.9744C411.431 64.9744 410.889 64.8371 410.449 64.5625C410.013 64.2831 409.682 63.9162 409.455 63.4616C409.227 63.0024 409.114 62.4981 409.114 61.9489ZM410.776 61.1818V61.9489C410.776 62.3561 410.87 62.7254 411.06 63.0568C411.254 63.3883 411.592 63.554 412.075 63.554C412.549 63.554 412.88 63.3883 413.07 63.0568C413.264 62.7254 413.361 62.3561 413.361 61.9489V61.1818C413.361 60.7746 413.268 60.4053 413.084 60.0739C412.899 59.7424 412.563 59.5767 412.075 59.5767C411.602 59.5767 411.266 59.7424 411.067 60.0739C410.873 60.4053 410.776 60.7746 410.776 61.1818ZM409.788 73L419.788 58.4545H421.486L411.486 73H409.788Z" fill="#0E6141"/>
<path d="M55.2784 62V50.3636H57.0341V55.4205H62.8352V50.3636H64.5966V62H62.8352V56.9261H57.0341V62H55.2784ZM70.4584 62.1761C69.5986 62.1761 68.858 61.9924 68.2368 61.625C67.6194 61.2538 67.1421 60.733 66.805 60.0625C66.4717 59.3883 66.305 58.5985 66.305 57.6932C66.305 56.7992 66.4717 56.0114 66.805 55.3295C67.1421 54.6477 67.6118 54.1155 68.2141 53.733C68.8202 53.3504 69.5285 53.1591 70.3391 53.1591C70.8315 53.1591 71.3088 53.2405 71.7709 53.4034C72.233 53.5663 72.6478 53.822 73.0152 54.1705C73.3827 54.5189 73.6724 54.9716 73.8845 55.5284C74.0967 56.0814 74.2027 56.7538 74.2027 57.5455V58.1477H67.2652V56.875H72.538C72.538 56.428 72.447 56.0322 72.2652 55.6875C72.0834 55.339 71.8277 55.0644 71.4982 54.8636C71.1724 54.6629 70.7898 54.5625 70.3505 54.5625C69.8732 54.5625 69.4565 54.6799 69.1005 54.9148C68.7482 55.1458 68.4755 55.4489 68.2823 55.8239C68.0929 56.1951 67.9982 56.5985 67.9982 57.0341V58.0284C67.9982 58.6117 68.1005 59.108 68.305 59.517C68.5133 59.9261 68.8031 60.2386 69.1743 60.4545C69.5455 60.6667 69.9792 60.7727 70.4755 60.7727C70.7974 60.7727 71.091 60.7273 71.3561 60.6364C71.6213 60.5417 71.8505 60.4015 72.0436 60.2159C72.2368 60.0303 72.3845 59.8011 72.4868 59.5284L74.0948 59.8182C73.966 60.2917 73.7349 60.7064 73.4016 61.0625C73.072 61.4148 72.6573 61.6894 72.1573 61.8864C71.6611 62.0795 71.0948 62.1761 70.4584 62.1761ZM78.3074 62.1932C77.7544 62.1932 77.2544 62.0909 76.8074 61.8864C76.3605 61.678 76.0063 61.3769 75.7449 60.983C75.4874 60.589 75.3586 60.1061 75.3586 59.5341C75.3586 59.0417 75.4533 58.6364 75.6427 58.3182C75.8321 58 76.0877 57.7481 76.4097 57.5625C76.7317 57.3769 77.0915 57.2367 77.4893 57.142C77.887 57.0473 78.2923 56.9754 78.7052 56.9261C79.2279 56.8655 79.6521 56.8163 79.9779 56.7784C80.3037 56.7367 80.5404 56.6705 80.6881 56.5795C80.8359 56.4886 80.9097 56.3409 80.9097 56.1364V56.0966C80.9097 55.6004 80.7696 55.2159 80.4893 54.9432C80.2127 54.6705 79.7999 54.5341 79.2506 54.5341C78.6787 54.5341 78.2279 54.661 77.8984 54.9148C77.5726 55.1648 77.3472 55.4432 77.2222 55.75L75.6256 55.3864C75.815 54.8561 76.0915 54.428 76.4552 54.1023C76.8226 53.7727 77.2449 53.5341 77.7222 53.3864C78.1995 53.2348 78.7014 53.1591 79.2279 53.1591C79.5764 53.1591 79.9457 53.2008 80.3359 53.2841C80.7298 53.3636 81.0972 53.5114 81.4381 53.7273C81.7828 53.9432 82.065 54.2519 82.2847 54.6534C82.5044 55.0511 82.6143 55.5682 82.6143 56.2045V62H80.9552V60.8068H80.887C80.7771 61.0265 80.6124 61.2424 80.3927 61.4545C80.173 61.6667 79.8908 61.8428 79.5461 61.983C79.2014 62.1231 78.7885 62.1932 78.3074 62.1932ZM78.6768 60.8295C79.1465 60.8295 79.548 60.7367 79.8813 60.5511C80.2184 60.3655 80.4741 60.1231 80.6484 59.8239C80.8264 59.5208 80.9154 59.197 80.9154 58.8523V57.7273C80.8548 57.7879 80.7374 57.8447 80.5631 57.8977C80.3927 57.947 80.1976 57.9905 79.9779 58.0284C79.7582 58.0625 79.5442 58.0947 79.3359 58.125C79.1275 58.1515 78.9533 58.1742 78.8131 58.1932C78.4836 58.2348 78.1824 58.3049 77.9097 58.4034C77.6408 58.5019 77.4249 58.6439 77.262 58.8295C77.1029 59.0114 77.0234 59.2538 77.0234 59.5568C77.0234 59.9773 77.1787 60.2955 77.4893 60.5114C77.7999 60.7235 78.1957 60.8295 78.6768 60.8295ZM86.2559 50.3636V62H84.557V50.3636H86.2559ZM92.2953 53.2727V54.6364H87.5282V53.2727H92.2953ZM88.8066 51.1818H90.5055V59.4375C90.5055 59.767 90.5548 60.0152 90.6532 60.1818C90.7517 60.3447 90.8786 60.4564 91.0339 60.517C91.193 60.5739 91.3654 60.6023 91.551 60.6023C91.6873 60.6023 91.8066 60.5928 91.9089 60.5739C92.0112 60.5549 92.0907 60.5398 92.1476 60.5284L92.4544 61.9318C92.3559 61.9697 92.2157 62.0076 92.0339 62.0455C91.8521 62.0871 91.6248 62.1098 91.3521 62.1136C90.9051 62.1212 90.4885 62.0417 90.1021 61.875C89.7157 61.7083 89.4032 61.4508 89.1646 61.1023C88.926 60.7538 88.8066 60.3163 88.8066 59.7898V51.1818ZM95.7409 56.8182V62H94.042V50.3636H95.7182V54.6932H95.8261C96.0307 54.2235 96.3432 53.8504 96.7636 53.5739C97.1841 53.2973 97.7333 53.1591 98.4114 53.1591C99.0099 53.1591 99.5326 53.2822 99.9795 53.5284C100.43 53.7746 100.779 54.142 101.025 54.6307C101.275 55.1155 101.4 55.7216 101.4 56.4489V62H99.7011V56.6534C99.7011 56.0133 99.5364 55.517 99.2068 55.1648C98.8773 54.8087 98.4189 54.6307 97.8318 54.6307C97.4303 54.6307 97.0705 54.7159 96.7523 54.8864C96.4379 55.0568 96.1898 55.3068 96.008 55.6364C95.8299 55.9621 95.7409 56.3561 95.7409 56.8182ZM104.108 65.2727C103.855 65.2727 103.624 65.2519 103.415 65.2102C103.207 65.1723 103.052 65.1307 102.949 65.0852L103.358 63.6932C103.669 63.7765 103.946 63.8125 104.188 63.8011C104.43 63.7898 104.644 63.6989 104.83 63.5284C105.019 63.358 105.186 63.0795 105.33 62.6932L105.54 62.1136L102.347 53.2727H104.165L106.375 60.0455H106.466L108.677 53.2727H110.5L106.904 63.1648C106.737 63.6193 106.525 64.0038 106.268 64.3182C106.01 64.6364 105.703 64.875 105.347 65.0341C104.991 65.1932 104.578 65.2727 104.108 65.2727ZM118.106 62L114.879 50.3636H116.726L118.993 59.375H119.101L121.458 50.3636H123.288L125.646 59.3807H125.754L128.015 50.3636H129.868L126.635 62H124.868L122.419 53.2841H122.328L119.879 62H118.106ZM133.829 62.1761C133.011 62.1761 132.297 61.9886 131.687 61.6136C131.077 61.2386 130.603 60.714 130.266 60.0398C129.929 59.3655 129.761 58.5777 129.761 57.6761C129.761 56.7708 129.929 55.9792 130.266 55.3011C130.603 54.6231 131.077 54.0966 131.687 53.7216C132.297 53.3466 133.011 53.1591 133.829 53.1591C134.647 53.1591 135.361 53.3466 135.971 53.7216C136.581 54.0966 137.054 54.6231 137.391 55.3011C137.728 55.9792 137.897 56.7708 137.897 57.6761C137.897 58.5777 137.728 59.3655 137.391 60.0398C137.054 60.714 136.581 61.2386 135.971 61.6136C135.361 61.9886 134.647 62.1761 133.829 62.1761ZM133.834 60.75C134.365 60.75 134.804 60.6098 135.153 60.3295C135.501 60.0492 135.759 59.6761 135.925 59.2102C136.096 58.7443 136.181 58.2311 136.181 57.6705C136.181 57.1136 136.096 56.6023 135.925 56.1364C135.759 55.6667 135.501 55.2898 135.153 55.0057C134.804 54.7216 134.365 54.5795 133.834 54.5795C133.3 54.5795 132.857 54.7216 132.505 55.0057C132.156 55.2898 131.897 55.6667 131.727 56.1364C131.56 56.6023 131.477 57.1136 131.477 57.6705C131.477 58.2311 131.56 58.7443 131.727 59.2102C131.897 59.6761 132.156 60.0492 132.505 60.3295C132.857 60.6098 133.3 60.75 133.834 60.75ZM139.473 62V53.2727H141.115V54.6591H141.206C141.365 54.1894 141.646 53.8201 142.047 53.5511C142.452 53.2784 142.911 53.142 143.422 53.142C143.528 53.142 143.653 53.1458 143.797 53.1534C143.945 53.161 144.06 53.1705 144.144 53.1818V54.8068C144.076 54.7879 143.954 54.767 143.78 54.7443C143.606 54.7178 143.432 54.7045 143.257 54.7045C142.856 54.7045 142.498 54.7898 142.184 54.9602C141.873 55.1269 141.627 55.3598 141.445 55.6591C141.263 55.9545 141.172 56.2917 141.172 56.6705V62H139.473ZM146.856 59.0398L146.845 56.9659H147.141L150.618 53.2727H152.652L148.686 57.4773H148.419L146.856 59.0398ZM145.294 62V50.3636H146.993V62H145.294ZM150.805 62L147.68 57.8523L148.851 56.6648L152.891 62H150.805ZM160.42 55.4034L158.88 55.6761C158.816 55.4792 158.714 55.2917 158.573 55.1136C158.437 54.9356 158.251 54.7898 158.017 54.6761C157.782 54.5625 157.488 54.5057 157.136 54.5057C156.655 54.5057 156.253 54.6136 155.931 54.8295C155.609 55.0417 155.448 55.3163 155.448 55.6534C155.448 55.9451 155.556 56.1799 155.772 56.358C155.988 56.536 156.337 56.6818 156.818 56.7955L158.204 57.1136C159.007 57.2992 159.606 57.5852 159.999 57.9716C160.393 58.358 160.59 58.8598 160.59 59.4773C160.59 60 160.439 60.4659 160.136 60.875C159.837 61.2803 159.418 61.5985 158.88 61.8295C158.346 62.0606 157.727 62.1761 157.022 62.1761C156.045 62.1761 155.248 61.9678 154.63 61.5511C154.013 61.1307 153.634 60.5341 153.494 59.7614L155.136 59.5114C155.238 59.9394 155.448 60.2633 155.767 60.483C156.085 60.6989 156.499 60.8068 157.011 60.8068C157.568 60.8068 158.013 60.6913 158.346 60.4602C158.679 60.2254 158.846 59.9394 158.846 59.6023C158.846 59.3295 158.744 59.1004 158.539 58.9148C158.339 58.7292 158.03 58.589 157.613 58.4943L156.136 58.1705C155.321 57.9848 154.719 57.6894 154.329 57.2841C153.943 56.8788 153.749 56.3655 153.749 55.7443C153.749 55.2292 153.893 54.7784 154.181 54.392C154.469 54.0057 154.867 53.7045 155.374 53.4886C155.882 53.2689 156.464 53.1591 157.119 53.1591C158.062 53.1591 158.804 53.3636 159.346 53.7727C159.888 54.178 160.246 54.7216 160.42 55.4034ZM162.138 65.2727V53.2727H163.797V54.6875H163.939C164.038 54.5057 164.18 54.2955 164.366 54.0568C164.551 53.8182 164.809 53.6098 165.138 53.4318C165.468 53.25 165.903 53.1591 166.445 53.1591C167.15 53.1591 167.778 53.3371 168.331 53.6932C168.885 54.0492 169.318 54.5625 169.633 55.233C169.951 55.9034 170.11 56.7102 170.11 57.6534C170.11 58.5966 169.953 59.4053 169.638 60.0795C169.324 60.75 168.892 61.267 168.343 61.6307C167.794 61.9905 167.167 62.1705 166.462 62.1705C165.932 62.1705 165.498 62.0814 165.161 61.9034C164.828 61.7254 164.566 61.517 164.377 61.2784C164.188 61.0398 164.042 60.8277 163.939 60.642H163.837V65.2727H162.138ZM163.803 57.6364C163.803 58.25 163.892 58.7879 164.07 59.25C164.248 59.7121 164.506 60.0739 164.843 60.3352C165.18 60.5928 165.593 60.7216 166.081 60.7216C166.589 60.7216 167.013 60.5871 167.354 60.3182C167.695 60.0455 167.953 59.6761 168.127 59.2102C168.305 58.7443 168.394 58.2197 168.394 57.6364C168.394 57.0606 168.307 56.5436 168.133 56.0852C167.962 55.6269 167.705 55.2652 167.36 55C167.019 54.7348 166.593 54.6023 166.081 54.6023C165.589 54.6023 165.172 54.7292 164.831 54.983C164.494 55.2367 164.239 55.5909 164.064 56.0455C163.89 56.5 163.803 57.0303 163.803 57.6364ZM174.233 62.1932C173.68 62.1932 173.18 62.0909 172.733 61.8864C172.286 61.678 171.932 61.3769 171.671 60.983C171.413 60.589 171.284 60.1061 171.284 59.5341C171.284 59.0417 171.379 58.6364 171.568 58.3182C171.758 58 172.013 57.7481 172.335 57.5625C172.657 57.3769 173.017 57.2367 173.415 57.142C173.813 57.0473 174.218 56.9754 174.631 56.9261C175.154 56.8655 175.578 56.8163 175.904 56.7784C176.229 56.7367 176.466 56.6705 176.614 56.5795C176.761 56.4886 176.835 56.3409 176.835 56.1364V56.0966C176.835 55.6004 176.695 55.2159 176.415 54.9432C176.138 54.6705 175.725 54.5341 175.176 54.5341C174.604 54.5341 174.154 54.661 173.824 54.9148C173.498 55.1648 173.273 55.4432 173.148 55.75L171.551 55.3864C171.741 54.8561 172.017 54.428 172.381 54.1023C172.748 53.7727 173.171 53.5341 173.648 53.3864C174.125 53.2348 174.627 53.1591 175.154 53.1591C175.502 53.1591 175.871 53.2008 176.261 53.2841C176.655 53.3636 177.023 53.5114 177.364 53.7273C177.708 53.9432 177.991 54.2519 178.21 54.6534C178.43 55.0511 178.54 55.5682 178.54 56.2045V62H176.881V60.8068H176.813C176.703 61.0265 176.538 61.2424 176.318 61.4545C176.099 61.6667 175.816 61.8428 175.472 61.983C175.127 62.1231 174.714 62.1932 174.233 62.1932ZM174.602 60.8295C175.072 60.8295 175.474 60.7367 175.807 60.5511C176.144 60.3655 176.4 60.1231 176.574 59.8239C176.752 59.5208 176.841 59.197 176.841 58.8523V57.7273C176.78 57.7879 176.663 57.8447 176.489 57.8977C176.318 57.947 176.123 57.9905 175.904 58.0284C175.684 58.0625 175.47 58.0947 175.261 58.125C175.053 58.1515 174.879 58.1742 174.739 58.1932C174.409 58.2348 174.108 58.3049 173.835 58.4034C173.566 58.5019 173.35 58.6439 173.188 58.8295C173.029 59.0114 172.949 59.2538 172.949 59.5568C172.949 59.9773 173.104 60.2955 173.415 60.5114C173.725 60.7235 174.121 60.8295 174.602 60.8295ZM184.159 62.1761C183.314 62.1761 182.587 61.9848 181.977 61.6023C181.371 61.2159 180.905 60.6837 180.579 60.0057C180.254 59.3277 180.091 58.5511 180.091 57.6761C180.091 56.7898 180.257 56.0076 180.591 55.3295C180.924 54.6477 181.394 54.1155 182 53.733C182.606 53.3504 183.32 53.1591 184.142 53.1591C184.805 53.1591 185.396 53.2822 185.914 53.5284C186.433 53.7708 186.852 54.1117 187.17 54.5511C187.492 54.9905 187.683 55.5038 187.744 56.0909H186.091C186 55.6818 185.791 55.3295 185.466 55.0341C185.144 54.7386 184.712 54.5909 184.17 54.5909C183.697 54.5909 183.282 54.7159 182.926 54.9659C182.574 55.2121 182.299 55.5644 182.102 56.0227C181.905 56.4773 181.807 57.0152 181.807 57.6364C181.807 58.2727 181.903 58.822 182.096 59.2841C182.289 59.7462 182.562 60.1042 182.914 60.358C183.271 60.6117 183.689 60.7386 184.17 60.7386C184.492 60.7386 184.784 60.6799 185.045 60.5625C185.31 60.4413 185.532 60.2689 185.71 60.0455C185.892 59.822 186.019 59.553 186.091 59.2386H187.744C187.683 59.803 187.5 60.3068 187.193 60.75C186.886 61.1932 186.475 61.5417 185.96 61.7955C185.449 62.0492 184.848 62.1761 184.159 62.1761ZM193.002 62.1761C192.142 62.1761 191.402 61.9924 190.781 61.625C190.163 61.2538 189.686 60.733 189.349 60.0625C189.015 59.3883 188.849 58.5985 188.849 57.6932C188.849 56.7992 189.015 56.0114 189.349 55.3295C189.686 54.6477 190.156 54.1155 190.758 53.733C191.364 53.3504 192.072 53.1591 192.883 53.1591C193.375 53.1591 193.853 53.2405 194.315 53.4034C194.777 53.5663 195.192 53.822 195.559 54.1705C195.926 54.5189 196.216 54.9716 196.428 55.5284C196.64 56.0814 196.746 56.7538 196.746 57.5455V58.1477H189.809V56.875H195.082C195.082 56.428 194.991 56.0322 194.809 55.6875C194.627 55.339 194.371 55.0644 194.042 54.8636C193.716 54.6629 193.334 54.5625 192.894 54.5625C192.417 54.5625 192 54.6799 191.644 54.9148C191.292 55.1458 191.019 55.4489 190.826 55.8239C190.637 56.1951 190.542 56.5985 190.542 57.0341V58.0284C190.542 58.6117 190.644 59.108 190.849 59.517C191.057 59.9261 191.347 60.2386 191.718 60.4545C192.089 60.6667 192.523 60.7727 193.019 60.7727C193.341 60.7727 193.635 60.7273 193.9 60.6364C194.165 60.5417 194.394 60.4015 194.587 60.2159C194.781 60.0303 194.928 59.8011 195.031 59.5284L196.639 59.8182C196.51 60.2917 196.279 60.7064 195.945 61.0625C195.616 61.4148 195.201 61.6894 194.701 61.8864C194.205 62.0795 193.639 62.1761 193.002 62.1761ZM204.851 55.4034L203.311 55.6761C203.247 55.4792 203.145 55.2917 203.005 55.1136C202.868 54.9356 202.683 54.7898 202.448 54.6761C202.213 54.5625 201.919 54.5057 201.567 54.5057C201.086 54.5057 200.685 54.6136 200.363 54.8295C200.041 55.0417 199.88 55.3163 199.88 55.6534C199.88 55.9451 199.988 56.1799 200.203 56.358C200.419 56.536 200.768 56.6818 201.249 56.7955L202.635 57.1136C203.438 57.2992 204.037 57.5852 204.431 57.9716C204.825 58.358 205.022 58.8598 205.022 59.4773C205.022 60 204.87 60.4659 204.567 60.875C204.268 61.2803 203.849 61.5985 203.311 61.8295C202.777 62.0606 202.158 62.1761 201.453 62.1761C200.476 62.1761 199.679 61.9678 199.061 61.5511C198.444 61.1307 198.065 60.5341 197.925 59.7614L199.567 59.5114C199.669 59.9394 199.88 60.2633 200.198 60.483C200.516 60.6989 200.931 60.8068 201.442 60.8068C201.999 60.8068 202.444 60.6913 202.777 60.4602C203.111 60.2254 203.277 59.9394 203.277 59.6023C203.277 59.3295 203.175 59.1004 202.971 58.9148C202.77 58.7292 202.461 58.589 202.044 58.4943L200.567 58.1705C199.753 57.9848 199.15 57.6894 198.76 57.2841C198.374 56.8788 198.181 56.3655 198.181 55.7443C198.181 55.2292 198.325 54.7784 198.613 54.392C198.9 54.0057 199.298 53.7045 199.806 53.4886C200.313 53.2689 200.895 53.1591 201.55 53.1591C202.493 53.1591 203.236 53.3636 203.777 53.7727C204.319 54.178 204.677 54.7216 204.851 55.4034Z" fill="#001833"/>
<path d="M57.8778 82.1449C57.2045 82.142 56.6293 81.9645 56.152 81.6122C55.6747 81.2599 55.3097 80.7472 55.0568 80.0739C54.804 79.4006 54.6776 78.5895 54.6776 77.6406C54.6776 76.6946 54.804 75.8864 55.0568 75.2159C55.3125 74.5455 55.679 74.0341 56.1562 73.6818C56.6364 73.3295 57.2102 73.1534 57.8778 73.1534C58.5455 73.1534 59.1179 73.331 59.5952 73.6861C60.0724 74.0384 60.4375 74.5497 60.6903 75.2202C60.946 75.8878 61.0739 76.6946 61.0739 77.6406C61.0739 78.5923 60.9474 79.4048 60.6946 80.0781C60.4418 80.7486 60.0767 81.2614 59.5994 81.6165C59.1222 81.9688 58.5483 82.1449 57.8778 82.1449ZM57.8778 81.0071C58.4688 81.0071 58.9304 80.7188 59.2628 80.142C59.598 79.5653 59.7656 78.7315 59.7656 77.6406C59.7656 76.9162 59.6889 76.304 59.5355 75.804C59.3849 75.3011 59.1676 74.9205 58.8835 74.6619C58.6023 74.4006 58.267 74.2699 57.8778 74.2699C57.2898 74.2699 56.8281 74.5597 56.4929 75.1392C56.1577 75.7187 55.9886 76.5526 55.9858 77.6406C55.9858 78.3679 56.0611 78.983 56.2116 79.4858C56.3651 79.9858 56.5824 80.3651 56.8636 80.6236C57.1449 80.8793 57.483 81.0071 57.8778 81.0071ZM65.2944 82.1193C64.6837 82.1193 64.1439 82.0142 63.6751 81.804C63.2092 81.5937 62.8442 81.304 62.58 80.9347C62.3158 80.5653 62.1851 80.1449 62.1879 79.6733C62.1851 79.304 62.2604 78.9645 62.4138 78.6548C62.57 78.3423 62.7817 78.0824 63.0487 77.875C63.3158 77.6648 63.614 77.5312 63.9436 77.4744V77.4233C63.5089 77.3182 63.1609 77.0852 62.8996 76.7244C62.6382 76.3636 62.5089 75.9489 62.5118 75.4801C62.5089 75.0341 62.6268 74.6364 62.8655 74.2869C63.1069 73.9347 63.4379 73.6577 63.8584 73.456C64.2788 73.2543 64.7575 73.1534 65.2944 73.1534C65.8257 73.1534 66.3001 73.2557 66.7177 73.4602C67.1382 73.6619 67.4692 73.9389 67.7106 74.2912C67.9521 74.6406 68.0743 75.0369 68.0771 75.4801C68.0743 75.9489 67.9408 76.3636 67.6765 76.7244C67.4123 77.0852 67.0686 77.3182 66.6453 77.4233V77.4744C66.972 77.5312 67.266 77.6648 67.5274 77.875C67.7916 78.0824 68.0018 78.3423 68.1581 78.6548C68.3172 78.9645 68.3981 79.304 68.401 79.6733C68.3981 80.1449 68.2646 80.5653 68.0004 80.9347C67.7362 81.304 67.3697 81.5937 66.901 81.804C66.4351 82.0142 65.8996 82.1193 65.2944 82.1193ZM65.2944 81.0412C65.6552 81.0412 65.9677 80.9815 66.2319 80.8622C66.4962 80.7401 66.7007 80.571 66.8456 80.3551C66.9905 80.1364 67.0643 79.8807 67.0672 79.5881C67.0643 79.2841 66.9848 79.0156 66.8285 78.7827C66.6751 78.5497 66.4663 78.3665 66.2021 78.233C65.9379 78.0994 65.6354 78.0327 65.2944 78.0327C64.9507 78.0327 64.6453 78.0994 64.3783 78.233C64.1112 78.3665 63.901 78.5497 63.7476 78.7827C63.5942 79.0156 63.5189 79.2841 63.5217 79.5881C63.5189 79.8807 63.5885 80.1364 63.7305 80.3551C63.8754 80.571 64.0814 80.7401 64.3484 80.8622C64.6155 80.9815 64.9308 81.0412 65.2944 81.0412ZM65.2944 76.9801C65.5842 76.9801 65.8413 76.9219 66.0658 76.8054C66.2902 76.6889 66.4663 76.527 66.5942 76.3196C66.7248 76.1122 66.7916 75.8693 66.7944 75.5909C66.7916 75.3182 66.7263 75.0795 66.5984 74.875C66.4734 74.6705 66.2987 74.5128 66.0743 74.402C65.8498 74.2884 65.5899 74.2315 65.2944 74.2315C64.9933 74.2315 64.7291 74.2884 64.5018 74.402C64.2774 74.5128 64.1027 74.6705 63.9777 74.875C63.8527 75.0795 63.7916 75.3182 63.7944 75.5909C63.7916 75.8693 63.8541 76.1122 63.9819 76.3196C64.1098 76.527 64.2859 76.6889 64.5104 76.8054C64.7376 76.9219 64.999 76.9801 65.2944 76.9801ZM73.0285 72.8636L70.216 83.3125H69.0782L71.8907 72.8636H73.0285ZM77.1649 73.2727V82H75.8439V74.5938H75.7928L73.7047 75.9574V74.696L75.8823 73.2727H77.1649ZM82.3241 82.1449C81.6508 82.142 81.0755 81.9645 80.5982 81.6122C80.121 81.2599 79.7559 80.7472 79.5031 80.0739C79.2502 79.4006 79.1238 78.5895 79.1238 77.6406C79.1238 76.6946 79.2502 75.8864 79.5031 75.2159C79.7588 74.5455 80.1252 74.0341 80.6025 73.6818C81.0826 73.3295 81.6565 73.1534 82.3241 73.1534C82.9917 73.1534 83.5641 73.331 84.0414 73.6861C84.5187 74.0384 84.8838 74.5497 85.1366 75.2202C85.3923 75.8878 85.5201 76.6946 85.5201 77.6406C85.5201 78.5923 85.3937 79.4048 85.1409 80.0781C84.888 80.7486 84.523 81.2614 84.0457 81.6165C83.5684 81.9688 82.9945 82.1449 82.3241 82.1449ZM82.3241 81.0071C82.915 81.0071 83.3766 80.7188 83.709 80.142C84.0443 79.5653 84.2119 78.7315 84.2119 77.6406C84.2119 76.9162 84.1352 76.304 83.9818 75.804C83.8312 75.3011 83.6139 74.9205 83.3298 74.6619C83.0485 74.4006 82.7133 74.2699 82.3241 74.2699C81.736 74.2699 81.2744 74.5597 80.9391 75.1392C80.6039 75.7187 80.4349 76.5526 80.432 77.6406C80.432 78.3679 80.5073 78.983 80.6579 79.4858C80.8113 79.9858 81.0286 80.3651 81.3099 80.6236C81.5911 80.8793 81.9292 81.0071 82.3241 81.0071ZM89.4165 74.4062V73.2727H96.1708V74.4062H93.4478V82H92.1353V74.4062H89.4165ZM98.3353 82.1449C97.9205 82.1449 97.5455 82.0682 97.2103 81.9148C96.875 81.7585 96.6094 81.5327 96.4134 81.2372C96.2202 80.9418 96.1236 80.5795 96.1236 80.1506C96.1236 79.7812 96.1946 79.4773 96.3367 79.2386C96.4787 79 96.6705 78.8111 96.912 78.6719C97.1535 78.5327 97.4233 78.4276 97.7216 78.3565C98.0199 78.2855 98.3239 78.2315 98.6336 78.1946C99.0256 78.1491 99.3438 78.1122 99.5881 78.0838C99.8324 78.0526 100.01 78.0028 100.121 77.9347C100.232 77.8665 100.287 77.7557 100.287 77.6023V77.5724C100.287 77.2003 100.182 76.9119 99.9716 76.7074C99.7642 76.5028 99.4546 76.4006 99.0427 76.4006C98.6137 76.4006 98.2756 76.4957 98.0285 76.6861C97.7841 76.8736 97.6151 77.0824 97.5213 77.3125L96.3239 77.0398C96.466 76.642 96.6733 76.321 96.9461 76.0767C97.2216 75.8295 97.5384 75.6506 97.8963 75.5398C98.2543 75.4261 98.6307 75.3693 99.0256 75.3693C99.287 75.3693 99.564 75.4006 99.8566 75.4631C100.152 75.5227 100.428 75.6335 100.683 75.7955C100.942 75.9574 101.153 76.1889 101.318 76.4901C101.483 76.7884 101.565 77.1761 101.565 77.6534V82H100.321V81.1051H100.27C100.188 81.2699 100.064 81.4318 99.8992 81.5909C99.7344 81.75 99.5228 81.8821 99.2642 81.9872C99.0057 82.0923 98.6961 82.1449 98.3353 82.1449ZM98.6123 81.1222C98.9645 81.1222 99.2657 81.0526 99.5157 80.9134C99.7685 80.7741 99.9603 80.5923 100.091 80.3679C100.224 80.1406 100.291 79.8977 100.291 79.6392V78.7955C100.246 78.8409 100.158 78.8835 100.027 78.9233C99.8992 78.9602 99.7529 78.9929 99.5881 79.0213C99.4233 79.0469 99.2628 79.071 99.1066 79.0938C98.9503 79.1136 98.8196 79.1307 98.7145 79.1449C98.4674 79.1761 98.2415 79.2287 98.037 79.3026C97.8353 79.3764 97.6733 79.483 97.5512 79.6222C97.4319 79.7585 97.3722 79.9403 97.3722 80.1676C97.3722 80.483 97.4887 80.7216 97.7216 80.8835C97.9546 81.0426 98.2515 81.1222 98.6123 81.1222ZM107.927 77.0526L106.772 77.2571C106.724 77.1094 106.647 76.9687 106.542 76.8352C106.44 76.7017 106.301 76.5923 106.125 76.5071C105.949 76.4219 105.728 76.3793 105.464 76.3793C105.103 76.3793 104.802 76.4602 104.561 76.6222C104.319 76.7812 104.199 76.9872 104.199 77.2401C104.199 77.4588 104.28 77.6349 104.442 77.7685C104.603 77.902 104.865 78.0114 105.226 78.0966L106.265 78.3352C106.868 78.4744 107.317 78.6889 107.612 78.9787C107.907 79.2685 108.055 79.6449 108.055 80.108C108.055 80.5 107.942 80.8494 107.714 81.1562C107.49 81.4602 107.176 81.6989 106.772 81.8722C106.372 82.0455 105.907 82.1321 105.379 82.1321C104.646 82.1321 104.048 81.9759 103.585 81.6634C103.122 81.348 102.838 80.9006 102.733 80.321L103.964 80.1335C104.041 80.4545 104.199 80.6974 104.437 80.8622C104.676 81.0241 104.987 81.1051 105.37 81.1051C105.788 81.1051 106.122 81.0185 106.372 80.8452C106.622 80.669 106.747 80.4545 106.747 80.2017C106.747 79.9972 106.67 79.8253 106.517 79.6861C106.366 79.5469 106.135 79.4418 105.822 79.3707L104.714 79.1278C104.103 78.9886 103.652 78.767 103.359 78.4631C103.069 78.1591 102.924 77.7741 102.924 77.3082C102.924 76.9219 103.032 76.5838 103.248 76.294C103.464 76.0043 103.763 75.7784 104.143 75.6165C104.524 75.4517 104.96 75.3693 105.451 75.3693C106.159 75.3693 106.716 75.5227 107.122 75.8295C107.528 76.1335 107.797 76.5412 107.927 77.0526ZM110.388 79.7798L110.379 78.2244H110.601L113.209 75.4545H114.735L111.76 78.608H111.56L110.388 79.7798ZM109.216 82V73.2727H110.49V82H109.216ZM113.35 82L111.006 78.8892L111.884 77.9986L114.914 82H113.35Z" fill="#6D6E78"/>
<circle cx="21" cy="66" r="21" fill="#F4F7FE"/>
<path d="M30.1744 63.6394C29.8209 63.27 29.4553 62.8894 29.3175 62.5547C29.19 62.2481 29.1825 61.74 29.175 61.2478C29.1609 60.3328 29.1459 59.2959 28.425 58.575C27.7041 57.8541 26.6672 57.8391 25.7522 57.825C25.26 57.8175 24.7519 57.81 24.4453 57.6825C24.1116 57.5447 23.73 57.1791 23.3606 56.8256C22.7137 56.2041 21.9788 55.5 21 55.5C20.0212 55.5 19.2872 56.2041 18.6394 56.8256C18.27 57.1791 17.8894 57.5447 17.5547 57.6825C17.25 57.81 16.74 57.8175 16.2478 57.825C15.3328 57.8391 14.2959 57.8541 13.575 58.575C12.8541 59.2959 12.8438 60.3328 12.825 61.2478C12.8175 61.74 12.81 62.2481 12.6825 62.5547C12.5447 62.8884 12.1791 63.27 11.8256 63.6394C11.2041 64.2863 10.5 65.0212 10.5 66C10.5 66.9788 11.2041 67.7128 11.8256 68.3606C12.1791 68.73 12.5447 69.1106 12.6825 69.4453C12.81 69.7519 12.8175 70.26 12.825 70.7522C12.8391 71.6672 12.8541 72.7041 13.575 73.425C14.2959 74.1459 15.3328 74.1609 16.2478 74.175C16.74 74.1825 17.2481 74.19 17.5547 74.3175C17.8884 74.4553 18.27 74.8209 18.6394 75.1744C19.2863 75.7959 20.0212 76.5 21 76.5C21.9788 76.5 22.7128 75.7959 23.3606 75.1744C23.73 74.8209 24.1106 74.4553 24.4453 74.3175C24.7519 74.19 25.26 74.1825 25.7522 74.175C26.6672 74.1609 27.7041 74.1459 28.425 73.425C29.1459 72.7041 29.1609 71.6672 29.175 70.7522C29.1825 70.26 29.19 69.7519 29.3175 69.4453C29.4553 69.1116 29.8209 68.73 30.1744 68.3606C30.7959 67.7137 31.5 66.9788 31.5 66C31.5 65.0212 30.7959 64.2872 30.1744 63.6394ZM25.2806 64.2806L20.0306 69.5306C19.961 69.6004 19.8783 69.6557 19.7872 69.6934C19.6962 69.7312 19.5986 69.7506 19.5 69.7506C19.4014 69.7506 19.3038 69.7312 19.2128 69.6934C19.1217 69.6557 19.039 69.6004 18.9694 69.5306L16.7194 67.2806C16.5786 67.1399 16.4996 66.949 16.4996 66.75C16.4996 66.551 16.5786 66.3601 16.7194 66.2194C16.8601 66.0786 17.051 65.9996 17.25 65.9996C17.449 65.9996 17.6399 66.0786 17.7806 66.2194L19.5 67.9397L24.2194 63.2194C24.2891 63.1497 24.3718 63.0944 24.4628 63.0567C24.5539 63.019 24.6515 62.9996 24.75 62.9996C24.8485 62.9996 24.9461 63.019 25.0372 63.0567C25.1282 63.0944 25.2109 63.1497 25.2806 63.2194C25.3503 63.2891 25.4056 63.3718 25.4433 63.4628C25.481 63.5539 25.5004 63.6515 25.5004 63.75C25.5004 63.8485 25.481 63.9461 25.4433 64.0372C25.4056 64.1282 25.3503 64.2109 25.2806 64.2806Z" fill="#059669"/>
<path d="M64.6705 122.129V133.766H63.0568L57.142 125.232H57.0341V133.766H55.2784V122.129H56.9034L62.8239 130.675H62.9318V122.129H64.6705ZM70.5365 133.942C69.6767 133.942 68.9362 133.758 68.3149 133.391C67.6975 133.019 67.2202 132.499 66.8831 131.828C66.5498 131.154 66.3831 130.364 66.3831 129.459C66.3831 128.565 66.5498 127.777 66.8831 127.095C67.2202 126.413 67.6899 125.881 68.2922 125.499C68.8983 125.116 69.6066 124.925 70.4172 124.925C70.9096 124.925 71.3869 125.006 71.849 125.169C72.3112 125.332 72.7259 125.588 73.0934 125.936C73.4608 126.285 73.7505 126.737 73.9627 127.294C74.1748 127.847 74.2809 128.519 74.2809 129.311V129.913H67.3434V128.641H72.6161C72.6161 128.194 72.5252 127.798 72.3434 127.453C72.1615 127.105 71.9059 126.83 71.5763 126.629C71.2505 126.429 70.868 126.328 70.4286 126.328C69.9513 126.328 69.5346 126.446 69.1786 126.68C68.8263 126.911 68.5536 127.214 68.3604 127.589C68.171 127.961 68.0763 128.364 68.0763 128.8V129.794C68.0763 130.377 68.1786 130.874 68.3831 131.283C68.5915 131.692 68.8812 132.004 69.2524 132.22C69.6237 132.432 70.0574 132.538 70.5536 132.538C70.8755 132.538 71.1691 132.493 71.4343 132.402C71.6994 132.307 71.9286 132.167 72.1218 131.982C72.3149 131.796 72.4627 131.567 72.5649 131.294L74.1729 131.584C74.0441 132.057 73.813 132.472 73.4797 132.828C73.1502 133.18 72.7354 133.455 72.2354 133.652C71.7392 133.845 71.1729 133.942 70.5365 133.942ZM79.6072 133.942C78.7473 133.942 78.0068 133.758 77.3856 133.391C76.7681 133.019 76.2909 132.499 75.9538 131.828C75.6204 131.154 75.4538 130.364 75.4538 129.459C75.4538 128.565 75.6204 127.777 75.9538 127.095C76.2909 126.413 76.7606 125.881 77.3628 125.499C77.9689 125.116 78.6772 124.925 79.4878 124.925C79.9803 124.925 80.4575 125.006 80.9197 125.169C81.3818 125.332 81.7966 125.588 82.164 125.936C82.5314 126.285 82.8212 126.737 83.0333 127.294C83.2454 127.847 83.3515 128.519 83.3515 129.311V129.913H76.414V128.641H81.6867C81.6867 128.194 81.5958 127.798 81.414 127.453C81.2322 127.105 80.9765 126.83 80.6469 126.629C80.3212 126.429 79.9386 126.328 79.4992 126.328C79.0219 126.328 78.6053 126.446 78.2492 126.68C77.8969 126.911 77.6242 127.214 77.431 127.589C77.2416 127.961 77.1469 128.364 77.1469 128.8V129.794C77.1469 130.377 77.2492 130.874 77.4538 131.283C77.6621 131.692 77.9519 132.004 78.3231 132.22C78.6943 132.432 79.128 132.538 79.6242 132.538C79.9462 132.538 80.2397 132.493 80.5049 132.402C80.77 132.307 80.9992 132.167 81.1924 131.982C81.3856 131.796 81.5333 131.567 81.6356 131.294L83.2435 131.584C83.1147 132.057 82.8837 132.472 82.5503 132.828C82.2208 133.18 81.806 133.455 81.306 133.652C80.8098 133.845 80.2435 133.942 79.6072 133.942ZM88.1835 133.936C87.4789 133.936 86.8501 133.756 86.2971 133.396C85.7479 133.033 85.316 132.516 85.0016 131.845C84.691 131.171 84.5357 130.362 84.5357 129.419C84.5357 128.476 84.6929 127.669 85.0073 126.999C85.3255 126.328 85.7611 125.815 86.3141 125.459C86.8672 125.103 87.4941 124.925 88.1948 124.925C88.7365 124.925 89.1721 125.016 89.5016 125.197C89.835 125.375 90.0926 125.584 90.2744 125.822C90.46 126.061 90.6039 126.271 90.7062 126.453H90.8085V122.129H92.5073V133.766H90.8482V132.408H90.7062C90.6039 132.593 90.4562 132.805 90.263 133.044C90.0736 133.283 89.8123 133.491 89.4789 133.669C89.1456 133.847 88.7138 133.936 88.1835 133.936ZM88.5585 132.487C89.0471 132.487 89.46 132.358 89.7971 132.101C90.138 131.839 90.3956 131.478 90.5698 131.016C90.7479 130.554 90.8369 130.016 90.8369 129.402C90.8369 128.796 90.7498 128.266 90.5755 127.811C90.4013 127.357 90.1456 127.002 89.8085 126.749C89.4713 126.495 89.0547 126.368 88.5585 126.368C88.0471 126.368 87.621 126.5 87.2801 126.766C86.9391 127.031 86.6816 127.393 86.5073 127.851C86.3369 128.309 86.2516 128.826 86.2516 129.402C86.2516 129.985 86.3388 130.51 86.513 130.976C86.6873 131.442 86.9448 131.811 87.2857 132.084C87.6304 132.353 88.0547 132.487 88.5585 132.487ZM101.152 127.169L99.612 127.442C99.5477 127.245 99.4454 127.057 99.3052 126.879C99.1689 126.701 98.9833 126.555 98.7484 126.442C98.5136 126.328 98.22 126.271 97.8677 126.271C97.3867 126.271 96.9852 126.379 96.6632 126.595C96.3412 126.807 96.1802 127.082 96.1802 127.419C96.1802 127.711 96.2882 127.946 96.5041 128.124C96.72 128.302 97.0685 128.447 97.5495 128.561L98.9359 128.879C99.7389 129.065 100.337 129.351 100.731 129.737C101.125 130.124 101.322 130.625 101.322 131.243C101.322 131.766 101.171 132.232 100.868 132.641C100.568 133.046 100.15 133.364 99.612 133.595C99.078 133.826 98.4586 133.942 97.7541 133.942C96.7768 133.942 95.9795 133.733 95.362 133.317C94.7446 132.896 94.3658 132.3 94.2257 131.527L95.8677 131.277C95.97 131.705 96.1802 132.029 96.4984 132.249C96.8166 132.464 97.2314 132.572 97.7427 132.572C98.2995 132.572 98.7446 132.457 99.078 132.226C99.4113 131.991 99.578 131.705 99.578 131.368C99.578 131.095 99.4757 130.866 99.2711 130.68C99.0704 130.495 98.7617 130.355 98.345 130.26L96.8677 129.936C96.0533 129.75 95.4511 129.455 95.0609 129.05C94.6745 128.644 94.4814 128.131 94.4814 127.51C94.4814 126.995 94.6253 126.544 94.9132 126.158C95.2011 125.771 95.5988 125.47 96.1064 125.254C96.6139 125.035 97.1954 124.925 97.8507 124.925C98.7939 124.925 99.5363 125.129 100.078 125.538C100.62 125.944 100.978 126.487 101.152 127.169ZM107.904 133.766H106.04L110.228 122.129H112.256L116.444 133.766H114.58L111.29 124.243H111.199L107.904 133.766ZM108.216 129.209H114.262V130.686H108.216V129.209ZM121.195 125.038V126.402H116.428V125.038H121.195ZM117.706 122.947H119.405V131.203C119.405 131.533 119.454 131.781 119.553 131.947C119.651 132.11 119.778 132.222 119.933 132.283C120.092 132.339 120.265 132.368 120.45 132.368C120.587 132.368 120.706 132.358 120.808 132.339C120.911 132.321 120.99 132.305 121.047 132.294L121.354 133.697C121.255 133.735 121.115 133.773 120.933 133.811C120.751 133.853 120.524 133.875 120.251 133.879C119.805 133.887 119.388 133.807 119.001 133.641C118.615 133.474 118.303 133.216 118.064 132.868C117.825 132.519 117.706 132.082 117.706 131.555V122.947ZM126.828 125.038V126.402H122.061V125.038H126.828ZM123.339 122.947H125.038V131.203C125.038 131.533 125.087 131.781 125.186 131.947C125.284 132.11 125.411 132.222 125.566 132.283C125.726 132.339 125.898 132.368 126.083 132.368C126.22 132.368 126.339 132.358 126.441 132.339C126.544 132.321 126.623 132.305 126.68 132.294L126.987 133.697C126.888 133.735 126.748 133.773 126.566 133.811C126.385 133.853 126.157 133.875 125.885 133.879C125.438 133.887 125.021 133.807 124.635 133.641C124.248 133.474 123.936 133.216 123.697 132.868C123.458 132.519 123.339 132.082 123.339 131.555V122.947ZM132.055 133.942C131.195 133.942 130.454 133.758 129.833 133.391C129.216 133.019 128.738 132.499 128.401 131.828C128.068 131.154 127.901 130.364 127.901 129.459C127.901 128.565 128.068 127.777 128.401 127.095C128.738 126.413 129.208 125.881 129.81 125.499C130.416 125.116 131.125 124.925 131.935 124.925C132.428 124.925 132.905 125.006 133.367 125.169C133.829 125.332 134.244 125.588 134.611 125.936C134.979 126.285 135.269 126.737 135.481 127.294C135.693 127.847 135.799 128.519 135.799 129.311V129.913H128.861V128.641H134.134C134.134 128.194 134.043 127.798 133.861 127.453C133.68 127.105 133.424 126.83 133.094 126.629C132.769 126.429 132.386 126.328 131.947 126.328C131.469 126.328 131.053 126.446 130.697 126.68C130.344 126.911 130.072 127.214 129.879 127.589C129.689 127.961 129.594 128.364 129.594 128.8V129.794C129.594 130.377 129.697 130.874 129.901 131.283C130.11 131.692 130.399 132.004 130.771 132.22C131.142 132.432 131.575 132.538 132.072 132.538C132.394 132.538 132.687 132.493 132.952 132.402C133.218 132.307 133.447 132.167 133.64 131.982C133.833 131.796 133.981 131.567 134.083 131.294L135.691 131.584C135.562 132.057 135.331 132.472 134.998 132.828C134.668 133.18 134.254 133.455 133.754 133.652C133.257 133.845 132.691 133.942 132.055 133.942ZM139.063 128.584V133.766H137.364V125.038H138.995V126.459H139.103C139.303 125.997 139.618 125.625 140.046 125.345C140.478 125.065 141.021 124.925 141.676 124.925C142.271 124.925 142.792 125.05 143.239 125.3C143.686 125.546 144.032 125.913 144.279 126.402C144.525 126.891 144.648 127.495 144.648 128.214V133.766H142.949V128.419C142.949 127.786 142.784 127.292 142.455 126.936C142.125 126.576 141.673 126.396 141.097 126.396C140.703 126.396 140.353 126.482 140.046 126.652C139.743 126.822 139.502 127.072 139.324 127.402C139.15 127.728 139.063 128.122 139.063 128.584ZM150.68 125.038V126.402H145.913V125.038H150.68ZM147.192 122.947H148.891V131.203C148.891 131.533 148.94 131.781 149.038 131.947C149.137 132.11 149.264 132.222 149.419 132.283C149.578 132.339 149.75 132.368 149.936 132.368C150.072 132.368 150.192 132.358 150.294 132.339C150.396 132.321 150.476 132.305 150.533 132.294L150.839 133.697C150.741 133.735 150.601 133.773 150.419 133.811C150.237 133.853 150.01 133.875 149.737 133.879C149.29 133.887 148.873 133.807 148.487 133.641C148.101 133.474 147.788 133.216 147.55 132.868C147.311 132.519 147.192 132.082 147.192 131.555V122.947ZM152.24 133.766V125.038H153.938V133.766H152.24ZM153.098 123.692C152.802 123.692 152.548 123.593 152.336 123.396C152.128 123.196 152.024 122.957 152.024 122.68C152.024 122.4 152.128 122.161 152.336 121.964C152.548 121.764 152.802 121.663 153.098 121.663C153.393 121.663 153.645 121.764 153.853 121.964C154.065 122.161 154.171 122.4 154.171 122.68C154.171 122.957 154.065 123.196 153.853 123.396C153.645 123.593 153.393 123.692 153.098 123.692ZM159.58 133.942C158.762 133.942 158.048 133.754 157.438 133.379C156.828 133.004 156.355 132.48 156.018 131.805C155.68 131.131 155.512 130.343 155.512 129.442C155.512 128.536 155.68 127.745 156.018 127.067C156.355 126.389 156.828 125.862 157.438 125.487C158.048 125.112 158.762 124.925 159.58 124.925C160.398 124.925 161.112 125.112 161.722 125.487C162.332 125.862 162.805 126.389 163.143 127.067C163.48 127.745 163.648 128.536 163.648 129.442C163.648 130.343 163.48 131.131 163.143 131.805C162.805 132.48 162.332 133.004 161.722 133.379C161.112 133.754 160.398 133.942 159.58 133.942ZM159.586 132.516C160.116 132.516 160.555 132.375 160.904 132.095C161.252 131.815 161.51 131.442 161.677 130.976C161.847 130.51 161.932 129.997 161.932 129.436C161.932 128.879 161.847 128.368 161.677 127.902C161.51 127.432 161.252 127.055 160.904 126.771C160.555 126.487 160.116 126.345 159.586 126.345C159.052 126.345 158.608 126.487 158.256 126.771C157.908 127.055 157.648 127.432 157.478 127.902C157.311 128.368 157.228 128.879 157.228 129.436C157.228 129.997 157.311 130.51 157.478 130.976C157.648 131.442 157.908 131.815 158.256 132.095C158.608 132.375 159.052 132.516 159.586 132.516ZM166.923 128.584V133.766H165.225V125.038H166.855V126.459H166.963C167.164 125.997 167.478 125.625 167.906 125.345C168.338 125.065 168.882 124.925 169.537 124.925C170.132 124.925 170.653 125.05 171.1 125.3C171.547 125.546 171.893 125.913 172.139 126.402C172.386 126.891 172.509 127.495 172.509 128.214V133.766H170.81V128.419C170.81 127.786 170.645 127.292 170.315 126.936C169.986 126.576 169.533 126.396 168.957 126.396C168.564 126.396 168.213 126.482 167.906 126.652C167.603 126.822 167.363 127.072 167.185 127.402C167.011 127.728 166.923 128.122 166.923 128.584Z" fill="#001833"/>
<path d="M57.8778 153.911C57.2045 153.908 56.6293 153.73 56.152 153.378C55.6747 153.026 55.3097 152.513 55.0568 151.839C54.804 151.166 54.6776 150.355 54.6776 149.406C54.6776 148.46 54.804 147.652 55.0568 146.982C55.3125 146.311 55.679 145.8 56.1562 145.447C56.6364 145.095 57.2102 144.919 57.8778 144.919C58.5455 144.919 59.1179 145.097 59.5952 145.452C60.0724 145.804 60.4375 146.315 60.6903 146.986C60.946 147.653 61.0739 148.46 61.0739 149.406C61.0739 150.358 60.9474 151.17 60.6946 151.844C60.4418 152.514 60.0767 153.027 59.5994 153.382C59.1222 153.734 58.5483 153.911 57.8778 153.911ZM57.8778 152.773C58.4688 152.773 58.9304 152.484 59.2628 151.908C59.598 151.331 59.7656 150.497 59.7656 149.406C59.7656 148.682 59.6889 148.07 59.5355 147.57C59.3849 147.067 59.1676 146.686 58.8835 146.428C58.6023 146.166 58.267 146.036 57.8778 146.036C57.2898 146.036 56.8281 146.325 56.4929 146.905C56.1577 147.484 55.9886 148.318 55.9858 149.406C55.9858 150.134 56.0611 150.749 56.2116 151.251C56.3651 151.751 56.5824 152.131 56.8636 152.389C57.1449 152.645 57.483 152.773 57.8778 152.773ZM65.3839 153.885C64.7987 153.885 64.276 153.784 63.8158 153.582C63.3584 153.381 62.9962 153.101 62.7291 152.743C62.4649 152.382 62.3229 151.964 62.303 151.49H63.641C63.6581 151.749 63.7447 151.973 63.901 152.163C64.0601 152.351 64.2675 152.496 64.5231 152.598C64.7788 152.7 65.0629 152.751 65.3754 152.751C65.7192 152.751 66.0231 152.692 66.2873 152.572C66.5544 152.453 66.7632 152.287 66.9138 152.074C67.0643 151.858 67.1396 151.609 67.1396 151.328C67.1396 151.036 67.0643 150.778 66.9138 150.557C66.766 150.332 66.5487 150.156 66.2618 150.028C65.9777 149.901 65.6339 149.837 65.2305 149.837H64.4933V148.763H65.2305C65.5544 148.763 65.8385 148.705 66.0828 148.588C66.33 148.472 66.5231 148.31 66.6623 148.102C66.8015 147.892 66.8712 147.646 66.8712 147.365C66.8712 147.095 66.8101 146.861 66.6879 146.662C66.5686 146.46 66.3981 146.303 66.1765 146.189C65.9578 146.075 65.6993 146.018 65.401 146.018C65.1169 146.018 64.8513 146.071 64.6041 146.176C64.3598 146.278 64.1609 146.426 64.0075 146.619C63.8541 146.81 63.7717 147.038 63.7604 147.305H62.4862C62.5004 146.834 62.6396 146.419 62.9038 146.061C63.1709 145.703 63.5231 145.423 63.9606 145.222C64.3981 145.02 64.8839 144.919 65.418 144.919C65.9777 144.919 66.4606 145.028 66.8669 145.247C67.276 145.463 67.5913 145.751 67.8129 146.112C68.0373 146.473 68.1481 146.868 68.1453 147.297C68.1481 147.786 68.0118 148.2 67.7362 148.541C67.4635 148.882 67.0998 149.111 66.6453 149.227V149.295C67.2248 149.384 67.6737 149.614 67.9919 149.986C68.3129 150.358 68.472 150.82 68.4692 151.371C68.472 151.851 68.3385 152.281 68.0686 152.662C67.8015 153.043 67.4365 153.342 66.9734 153.561C66.5104 153.777 65.9805 153.885 65.3839 153.885ZM73.1809 144.629L70.3684 155.078H69.2306L72.0431 144.629H73.1809ZM77.3173 145.038V153.766H75.9963V146.359H75.9451L73.8571 147.723V146.462L76.0346 145.038H77.3173ZM82.4764 153.911C81.8031 153.908 81.2279 153.73 80.7506 153.378C80.2733 153.026 79.9083 152.513 79.6554 151.839C79.4026 151.166 79.2762 150.355 79.2762 149.406C79.2762 148.46 79.4026 147.652 79.6554 146.982C79.9111 146.311 80.2776 145.8 80.7548 145.447C81.235 145.095 81.8088 144.919 82.4764 144.919C83.144 144.919 83.7165 145.097 84.1938 145.452C84.671 145.804 85.0361 146.315 85.2889 146.986C85.5446 147.653 85.6725 148.46 85.6725 149.406C85.6725 150.358 85.546 151.17 85.2932 151.844C85.0404 152.514 84.6753 153.027 84.198 153.382C83.7208 153.734 83.1469 153.911 82.4764 153.911ZM82.4764 152.773C83.0673 152.773 83.529 152.484 83.8614 151.908C84.1966 151.331 84.3642 150.497 84.3642 149.406C84.3642 148.682 84.2875 148.07 84.1341 147.57C83.9835 147.067 83.7662 146.686 83.4821 146.428C83.2009 146.166 82.8656 146.036 82.4764 146.036C81.8884 146.036 81.4267 146.325 81.0915 146.905C80.7563 147.484 80.5872 148.318 80.5844 149.406C80.5844 150.134 80.6597 150.749 80.8102 151.251C80.9637 151.751 81.181 152.131 81.4622 152.389C81.7435 152.645 82.0815 152.773 82.4764 152.773ZM89.5689 146.172V145.038H96.3231V146.172H93.6001V153.766H92.2876V146.172H89.5689ZM98.4876 153.911C98.0728 153.911 97.6978 153.834 97.3626 153.68C97.0274 153.524 96.7618 153.298 96.5657 153.003C96.3726 152.707 96.276 152.345 96.276 151.916C96.276 151.547 96.347 151.243 96.489 151.004C96.6311 150.766 96.8228 150.577 97.0643 150.438C97.3058 150.298 97.5757 150.193 97.874 150.122C98.1723 150.051 98.4762 149.997 98.7859 149.96C99.178 149.915 99.4961 149.878 99.7405 149.849C99.9848 149.818 100.162 149.768 100.273 149.7C100.384 149.632 100.439 149.521 100.439 149.368V149.338C100.439 148.966 100.334 148.678 100.124 148.473C99.9166 148.268 99.6069 148.166 99.195 148.166C98.766 148.166 98.428 148.261 98.1808 148.452C97.9365 148.639 97.7674 148.848 97.6737 149.078L96.4762 148.805C96.6183 148.408 96.8257 148.087 97.0984 147.842C97.374 147.595 97.6907 147.416 98.0487 147.305C98.4066 147.192 98.7831 147.135 99.178 147.135C99.4393 147.135 99.7163 147.166 100.009 147.229C100.304 147.288 100.58 147.399 100.836 147.561C101.094 147.723 101.306 147.955 101.471 148.256C101.635 148.554 101.718 148.942 101.718 149.419V153.766H100.473V152.871H100.422C100.34 153.036 100.216 153.197 100.052 153.357C99.8868 153.516 99.6751 153.648 99.4166 153.753C99.1581 153.858 98.8484 153.911 98.4876 153.911ZM98.7646 152.888C99.1169 152.888 99.418 152.818 99.668 152.679C99.9209 152.54 100.113 152.358 100.243 152.134C100.377 151.906 100.444 151.663 100.444 151.405V150.561C100.398 150.607 100.31 150.649 100.179 150.689C100.052 150.726 99.9052 150.759 99.7405 150.787C99.5757 150.812 99.4152 150.837 99.2589 150.859C99.1027 150.879 98.972 150.896 98.8669 150.911C98.6197 150.942 98.3939 150.994 98.1893 151.068C97.9876 151.142 97.8257 151.249 97.7035 151.388C97.5842 151.524 97.5245 151.706 97.5245 151.933C97.5245 152.249 97.641 152.487 97.874 152.649C98.1069 152.808 98.4038 152.888 98.7646 152.888ZM108.08 148.818L106.925 149.023C106.877 148.875 106.8 148.734 106.695 148.601C106.592 148.467 106.453 148.358 106.277 148.273C106.101 148.187 105.881 148.145 105.617 148.145C105.256 148.145 104.955 148.226 104.713 148.388C104.472 148.547 104.351 148.753 104.351 149.006C104.351 149.224 104.432 149.401 104.594 149.534C104.756 149.668 105.017 149.777 105.378 149.862L106.418 150.101C107.02 150.24 107.469 150.455 107.764 150.744C108.06 151.034 108.207 151.411 108.207 151.874C108.207 152.266 108.094 152.615 107.867 152.922C107.642 153.226 107.328 153.464 106.925 153.638C106.524 153.811 106.06 153.898 105.531 153.898C104.798 153.898 104.2 153.741 103.737 153.429C103.274 153.114 102.99 152.666 102.885 152.087L104.117 151.899C104.193 152.22 104.351 152.463 104.59 152.628C104.828 152.79 105.139 152.871 105.523 152.871C105.94 152.871 106.274 152.784 106.524 152.611C106.774 152.435 106.899 152.22 106.899 151.967C106.899 151.763 106.823 151.591 106.669 151.452C106.519 151.312 106.287 151.207 105.975 151.136L104.867 150.893C104.256 150.754 103.804 150.533 103.511 150.229C103.222 149.925 103.077 149.54 103.077 149.074C103.077 148.687 103.185 148.349 103.401 148.06C103.617 147.77 103.915 147.544 104.296 147.382C104.676 147.217 105.112 147.135 105.604 147.135C106.311 147.135 106.868 147.288 107.274 147.595C107.68 147.899 107.949 148.307 108.08 148.818ZM110.54 151.545L110.532 149.99H110.753L113.361 147.22H114.887L111.912 150.374H111.712L110.54 151.545ZM109.368 153.766V145.038H110.643V153.766H109.368ZM113.502 153.766L111.158 150.655L112.036 149.764L115.066 153.766H113.502Z" fill="#6D6E78"/>
<circle cx="21" cy="137.766" r="21" fill="#F4F7FE"/>
<path d="M28.5 129.516H13.5C13.1022 129.516 12.7206 129.674 12.4393 129.955C12.158 130.236 12 130.618 12 131.016V136.266C12 141.208 14.3925 144.203 16.3997 145.846C18.5616 147.614 20.7122 148.214 20.8059 148.239C20.9348 148.274 21.0708 148.274 21.1997 148.239C21.2934 148.214 23.4413 147.614 25.6059 145.846C27.6075 144.203 30 141.208 30 136.266V131.016C30 130.618 29.842 130.236 29.5607 129.955C29.2794 129.674 28.8978 129.516 28.5 129.516ZM25.2825 136.046L20.0325 141.296C19.9628 141.366 19.8801 141.421 19.7891 141.459C19.698 141.497 19.6004 141.516 19.5019 141.516C19.4033 141.516 19.3057 141.497 19.2147 141.459C19.1236 141.421 19.0409 141.366 18.9713 141.296L16.7213 139.046C16.5805 138.906 16.5015 138.715 16.5015 138.516C16.5015 138.317 16.5805 138.126 16.7213 137.985C16.862 137.844 17.0529 137.765 17.2519 137.765C17.4509 137.765 17.6418 137.844 17.7825 137.985L19.5 139.705L24.2194 134.985C24.2891 134.915 24.3718 134.86 24.4628 134.822C24.5539 134.785 24.6515 134.765 24.75 134.765C24.8485 134.765 24.9461 134.785 25.0372 134.822C25.1282 134.86 25.2109 134.915 25.2806 134.985C25.3503 135.055 25.4056 135.137 25.4433 135.228C25.481 135.319 25.5004 135.417 25.5004 135.516C25.5004 135.614 25.481 135.712 25.4433 135.803C25.4056 135.894 25.3503 135.977 25.2806 136.046H25.2825Z" fill="#D97706"/>
<path d="M383.661 143.766V142.175L388.583 137.075C389.108 136.521 389.542 136.036 389.882 135.619C390.228 135.198 390.486 134.798 390.657 134.419C390.827 134.04 390.912 133.638 390.912 133.212C390.912 132.729 390.799 132.312 390.571 131.962C390.344 131.607 390.034 131.334 389.641 131.145C389.248 130.951 388.805 130.854 388.313 130.854C387.792 130.854 387.337 130.96 386.949 131.173C386.561 131.386 386.263 131.687 386.054 132.075C385.846 132.464 385.742 132.918 385.742 133.439H383.647C383.647 132.554 383.85 131.779 384.257 131.116C384.665 130.454 385.223 129.94 385.934 129.575C386.644 129.206 387.451 129.021 388.355 129.021C389.269 129.021 390.074 129.204 390.77 129.568C391.471 129.928 392.018 130.42 392.411 131.045C392.804 131.666 393 132.366 393 133.148C393 133.688 392.899 134.215 392.695 134.732C392.496 135.248 392.148 135.823 391.651 136.457C391.154 137.087 390.462 137.852 389.577 138.751L386.686 141.777V141.884H393.235V143.766H383.661ZM400.99 144.007C399.868 144.002 398.909 143.706 398.114 143.119C397.319 142.532 396.71 141.678 396.289 140.555C395.867 139.433 395.657 138.081 395.657 136.5C395.657 134.923 395.867 133.576 396.289 132.459C396.715 131.341 397.326 130.489 398.121 129.902C398.921 129.315 399.878 129.021 400.99 129.021C402.103 129.021 403.057 129.317 403.853 129.909C404.648 130.496 405.257 131.348 405.678 132.466C406.104 133.579 406.317 134.923 406.317 136.5C406.317 138.086 406.106 139.44 405.685 140.562C405.264 141.68 404.655 142.535 403.86 143.126C403.064 143.714 402.108 144.007 400.99 144.007ZM400.99 142.111C401.975 142.111 402.745 141.63 403.299 140.669C403.857 139.708 404.137 138.318 404.137 136.5C404.137 135.293 404.009 134.272 403.753 133.439C403.502 132.601 403.14 131.966 402.667 131.536C402.198 131.1 401.639 130.882 400.99 130.882C400.01 130.882 399.241 131.365 398.682 132.331C398.123 133.297 397.842 134.687 397.837 136.5C397.837 137.712 397.962 138.737 398.213 139.575C398.469 140.409 398.831 141.041 399.3 141.472C399.769 141.898 400.332 142.111 400.99 142.111ZM416.429 141.038V140.271C416.429 139.722 416.543 139.22 416.77 138.766C417.002 138.306 417.338 137.939 417.778 137.665C418.223 137.385 418.761 137.246 419.391 137.246C420.035 137.246 420.574 137.383 421.01 137.658C421.446 137.932 421.775 138.299 421.997 138.759C422.224 139.218 422.338 139.722 422.338 140.271V141.038C422.338 141.588 422.224 142.092 421.997 142.551C421.77 143.006 421.436 143.373 420.996 143.652C420.56 143.927 420.025 144.064 419.391 144.064C418.751 144.064 418.212 143.927 417.771 143.652C417.331 143.373 416.997 143.006 416.77 142.551C416.543 142.092 416.429 141.588 416.429 141.038ZM418.084 140.271V141.038C418.084 141.446 418.181 141.815 418.375 142.146C418.569 142.478 418.908 142.643 419.391 142.643C419.869 142.643 420.203 142.478 420.392 142.146C420.581 141.815 420.676 141.446 420.676 141.038V140.271C420.676 139.864 420.584 139.495 420.399 139.163C420.219 138.832 419.883 138.666 419.391 138.666C418.917 138.666 418.581 138.832 418.382 139.163C418.183 139.495 418.084 139.864 418.084 140.271ZM409.114 132.714V131.947C409.114 131.398 409.227 130.894 409.455 130.435C409.687 129.975 410.023 129.608 410.463 129.334C410.908 129.059 411.446 128.922 412.075 128.922C412.719 128.922 413.259 129.059 413.695 129.334C414.13 129.608 414.459 129.975 414.682 130.435C414.904 130.894 415.016 131.398 415.016 131.947V132.714C415.016 133.264 414.902 133.768 414.675 134.227C414.452 134.682 414.121 135.049 413.68 135.328C413.245 135.603 412.71 135.74 412.075 135.74C411.431 135.74 410.889 135.603 410.449 135.328C410.013 135.049 409.682 134.682 409.455 134.227C409.227 133.768 409.114 133.264 409.114 132.714ZM410.776 131.947V132.714C410.776 133.122 410.87 133.491 411.06 133.822C411.254 134.154 411.592 134.32 412.075 134.32C412.549 134.32 412.88 134.154 413.07 133.822C413.264 133.491 413.361 133.122 413.361 132.714V131.947C413.361 131.54 413.268 131.171 413.084 130.839C412.899 130.508 412.563 130.342 412.075 130.342C411.602 130.342 411.266 130.508 411.067 130.839C410.873 131.171 410.776 131.54 410.776 131.947ZM409.788 143.766L419.788 129.22H421.486L411.486 143.766H409.788Z" fill="#001833"/>
</svg>
