<svg width="20" height="20" viewBox="0 0 20 20" fill="none" xmlns="http://www.w3.org/2000/svg">
  <path 
    d="M14.1667 16.6641C14.1667 15.2833 12.3012 14.1641 10 14.1641C7.69882 14.1641 5.83333 15.2833 5.83333 16.6641M17.5 14.1644C17.5 13.1392 16.4716 12.2581 15 11.8724M2.5 14.1644C2.5 13.1392 3.52842 12.2581 5 11.8724M15 8.52748C15.5114 8.06972 15.8333 7.40448 15.8333 6.66406C15.8333 5.28335 14.7141 4.16406 13.3333 4.16406C12.693 4.16406 12.109 4.40477 11.6667 4.80064M5 8.52748C4.48854 8.06972 4.16667 7.40448 4.16667 6.66406C4.16667 5.28335 5.28596 4.16406 6.66667 4.16406C7.30696 4.16406 7.89103 4.40477 8.33333 4.80064M10 11.6641C8.61925 11.6641 7.5 10.5448 7.5 9.16406C7.5 7.78335 8.61925 6.66406 10 6.66406C11.3807 6.66406 12.5 7.78335 12.5 9.16406C12.5 10.5448 11.3807 11.6641 10 11.6641Z" 
    stroke="#64748B" 
    stroke-width="1.66667" 
    stroke-linecap="round" 
    stroke-linejoin="round"
  />
</svg>
