<svg width="20" height="19" viewBox="0 0 20 19" fill="none" xmlns="http://www.w3.org/2000/svg">
<path d="M10.1036 5.72266H7.35975C6.5733 5.74713 6.57488 6.88812 7.35975 6.91181H10.1036C10.8901 6.88733 10.8885 5.74635 10.1036 5.72266Z" fill="#082B45"/>
<path d="M10.1036 9.58984H7.35975C6.5733 9.61432 6.57488 10.7553 7.35975 10.779H10.1036C10.8901 10.7545 10.8885 9.61353 10.1036 9.58984Z" fill="#082B45"/>
<path d="M19.3639 17.6818H17.9007V9.62774C17.9007 8.22775 17.0787 6.98656 15.8067 6.46464C15.8067 6.46464 14.9721 6.12195 14.4707 5.91665V4.35006C14.5165 2.18109 12.3624 0.446927 10.2684 1.05739L5.46593 2.37052C4.0091 2.76928 2.99133 4.12346 2.99133 5.66319V17.6819H1.52817C1.19969 17.6819 0.933594 17.948 0.933594 18.2764C0.933594 18.6049 1.19969 18.871 1.52817 18.871H19.3639C20.1558 18.8426 20.1456 17.7063 19.3639 17.6818ZM4.18046 5.66315C4.18046 4.65718 4.83821 3.77439 5.77943 3.51702L10.5819 2.20389C11.9384 1.80988 13.3124 2.95008 13.2815 4.35002V17.6826L4.1805 17.6818L4.18046 5.66315ZM14.4706 17.6818V7.20124L15.3558 7.56447C16.1794 7.90242 16.7116 8.71177 16.7116 9.62772V17.6818L14.4706 17.6818Z" fill="#082B45"/>
</svg>
