<svg width="18" height="20" viewBox="0 0 18 20" fill="#082B45" xmlns="http://www.w3.org/2000/svg">
  <path 
    d="M11.6719 14.6273H16.5625L15.1883 13.2531C14.8156 12.8804 14.6063 12.3749 14.6063 11.8479V8.75854C14.6063 6.20327 12.9732 4.02942 10.6938 3.22378V2.88983C10.6938 1.80943 9.81794 0.933594 8.73754 0.933594C7.65714 0.933594 6.78131 1.80943 6.78131 2.88983V3.22378C4.50192 4.02942 2.86883 6.20327 2.86883 8.75854V11.8479C2.86883 12.3749 2.65947 12.8804 2.28679 13.2531L0.912598 14.6273H5.80319M11.6719 14.6273V15.6054C11.6719 17.226 10.3581 18.5397 8.73754 18.5397C7.11694 18.5397 5.80319 17.226 5.80319 15.6054V14.6273M11.6719 14.6273H5.80319" 
    stroke="#FFFFFF" 
    stroke-width="0" 
    stroke-linecap="round" 
    stroke-linejoin="round"
  />
</svg>
